<svg width="71" height="79" viewBox="0 0 71 79" fill="none" xmlns="http://www.w3.org/2000/svg">
<g clip-path="url(#clip0_155_183)">
<path d="M19.5455 70.5088C19.881 71.116 20.2186 71.6851 20.5201 72.2711C21.3567 73.8891 20.8959 75.6026 19.3395 76.5475C18.2099 77.2354 17.0506 77.8745 15.8891 78.5094C14.1119 79.484 12.3687 78.985 11.3559 77.2014C8.67766 72.4778 6.00654 67.7499 3.34249 63.0177C2.57385 61.6567 1.79459 60.302 1.03657 58.9346C0.0492248 57.1467 0.533341 55.4056 2.29781 54.3801C3.39486 53.7402 4.5004 53.1146 5.61444 52.5031C7.31309 51.5752 9.06057 52.0657 10.0522 53.7303C10.307 54.155 10.5554 54.5924 10.8357 55.0744C11.4217 54.741 11.9674 54.4374 12.511 54.1189C15.284 52.5179 18.0316 50.866 20.8386 49.3329C22.0261 48.6979 23.2782 48.1918 24.5735 47.8233C26.6225 47.2266 28.5972 47.7702 30.5379 48.49C34.2579 49.868 37.995 51.1739 41.8976 51.9786C44.6303 52.5391 46.2483 55.5627 45.4032 58.2318C45.331 58.4568 45.2461 58.6755 45.0847 59.1299C45.8024 58.7838 46.3736 58.5524 46.9001 58.2466C51.0293 55.8544 55.1464 53.4536 59.2515 51.0443C60.8588 50.1058 62.5256 49.3181 64.3729 48.9656C67.4835 48.3711 70.0888 49.8149 70.8129 52.5752C71.1254 53.6803 71.0661 54.8575 70.6441 55.9256C70.2221 56.9937 69.4607 57.8935 68.4772 58.4865C60.9565 63.1338 53.4343 67.7789 45.9107 72.4219C43.3139 74.0292 40.5705 74.4433 37.617 73.6364C32.7716 72.3157 27.8901 71.1139 23.0744 69.6892C21.6221 69.256 20.6432 69.6743 19.5455 70.5088ZM18.2545 68.2368C18.9085 67.861 19.5094 67.5765 20.0423 67.1985C20.7813 66.6762 21.5138 66.6507 22.3674 66.8864C27.595 68.3175 32.8396 69.6849 38.0629 71.133C40.4283 71.7849 42.5877 71.4876 44.6728 70.1924C52.1426 65.5607 59.6209 60.9411 67.1077 56.3335C68.2649 55.6201 68.696 54.4565 68.3201 53.1103C68.0038 51.9871 67.0737 51.3756 65.6787 51.4117C65.2552 51.3962 64.8322 51.4537 64.4281 51.5815C63.084 52.1209 61.7018 52.6135 60.449 53.3227C56.3701 55.6286 52.3316 57.9939 48.3036 60.3933C46.0572 61.7267 43.6663 62.2321 41.1375 61.6673C37.8633 60.9326 34.6189 60.0727 31.3702 59.2361C30.5464 59.0237 30.1705 58.3209 30.3914 57.6032C30.6037 56.928 31.2683 56.5883 32.0539 56.8006C33.4065 57.1658 34.7463 57.5799 36.1052 57.9239C37.5915 58.3018 39.0779 58.7329 40.5812 58.9409C41.9486 59.1299 42.8658 58.3485 43.0612 57.1425C43.2565 55.9364 42.5112 54.7899 41.2436 54.4459C40.7086 54.3015 40.148 54.2463 39.6214 54.0786C35.9714 52.915 32.3172 51.7578 28.6842 50.5454C27.1597 50.0358 25.6691 50.0018 24.1849 50.5793C23.3693 50.8886 22.578 51.2584 21.8174 51.6856C18.7365 53.4437 15.6747 55.2336 12.6086 57.0151C12.4515 57.1043 12.3071 57.2126 12.1054 57.3485C14.1502 60.9666 16.1779 64.5592 18.2566 68.2368H18.2545ZM18.4477 73.8763C18.3182 73.5918 18.2524 73.4198 18.1611 73.2606C14.7525 67.2176 11.3438 61.1761 7.93521 55.136C7.61672 54.5669 7.24302 54.4862 6.70157 54.8026C5.74183 55.3632 4.76723 55.8982 3.80324 56.4482C2.95392 56.9323 2.9157 57.0852 3.40194 57.9515C5.00292 60.7826 6.60531 63.6179 8.20912 66.4575C9.95448 69.5476 11.6991 72.637 13.4431 75.7257C13.9272 76.5751 14.0673 76.6154 14.9294 76.1292C15.8998 75.5877 16.8722 75.0505 17.8256 74.4793C18.0577 74.3047 18.2673 74.1022 18.4499 73.8763H18.4477Z" fill="#EF4423"/>
<path d="M31.4912 31.287C31.0665 31.0981 30.6992 30.9409 30.3404 30.7753C28.2171 29.7986 27.0981 27.8027 27.3677 25.4861C27.3905 25.2485 27.4274 25.0124 27.4781 24.7791C27.9304 22.8893 27.4484 21.2162 26.5311 19.5366C24.9917 16.7211 25.3272 14.7061 27.7542 12.6061C29.3063 11.2621 30.1429 9.68232 30.5145 7.6949C31.0623 4.81993 32.727 3.48649 35.6295 3.323C36.318 3.31883 37.0053 3.26846 37.687 3.17224C38.3048 3.06051 38.8992 2.84514 39.4451 2.53525C40.1713 2.11058 40.8126 1.53517 41.4984 1.04893C43.3839 -0.322733 45.6027 -0.348214 47.4819 1.02132C51.0406 3.61814 49.6392 3.01724 53.9771 3.35697C54.9611 3.43048 55.9001 3.79881 56.6716 4.41392C57.4431 5.02903 58.0114 5.86236 58.3023 6.80523C58.5656 7.65456 58.659 8.58244 58.9754 9.41903C59.2587 10.1474 59.6526 10.8278 60.1432 11.4362C60.6316 12.0541 61.2877 12.5361 61.8525 13.0966C63.4534 14.6827 63.9545 16.9037 62.8504 18.855C61.6507 20.9783 61.173 23.0762 61.6168 25.5265C62.0414 27.8876 60.9246 29.6861 58.7524 30.7668C58.6481 30.831 58.5481 30.9019 58.453 30.9792C59.502 33.4252 60.5459 35.8592 61.5849 38.2812C61.7824 38.7441 62.0712 39.1921 62.154 39.6741C62.2368 40.1561 62.2877 40.8122 62.0308 41.1307C61.7739 41.4492 61.0902 41.617 60.6358 41.5554C59.2004 41.343 57.7799 41.0097 56.3616 40.6869C55.8775 40.5765 55.5887 40.67 55.3275 41.1116C54.6035 42.3474 53.8242 43.547 53.0811 44.7701C52.7562 45.303 52.357 45.698 51.6839 45.6194C51.0469 45.5536 50.7497 45.1119 50.5182 44.5577C49.533 42.2412 48.5159 39.9395 47.5456 37.6188C47.4742 37.4099 47.3497 37.2232 47.1845 37.0769C47.0192 36.9306 46.8188 36.8298 46.6028 36.7843C45.5858 36.5168 44.5814 36.0454 43.5155 36.4955C43.194 36.6275 42.9262 36.8638 42.7554 37.1665C41.3009 40.2283 39.8783 43.305 38.4557 46.3817C38.1903 46.9592 37.893 47.4773 37.1668 47.5113C36.4406 47.5452 36.0882 47.0696 35.7739 46.5133C35.0796 45.2924 34.3513 44.0927 33.674 42.8612C33.4425 42.4366 33.1877 42.3389 32.7227 42.4366C31.2704 42.7211 29.8117 43.0077 28.3423 43.1733C27.8922 43.2264 27.217 43.0332 26.977 42.7062C26.7371 42.3792 26.7286 41.6637 26.9133 41.2517C28.3466 38.0349 29.8541 34.85 31.3362 31.6544C31.3829 31.5546 31.419 31.4569 31.4912 31.287ZM29.886 26.0021C29.869 27.2082 30.3552 28.1254 31.4445 28.463C34.243 29.3569 36.3069 31.062 37.6255 33.6843C37.6376 33.7079 37.6526 33.73 37.67 33.7501C38.3495 34.695 39.288 35.1536 40.3624 34.7226C41.6798 34.1681 43.0948 33.8825 44.5241 33.8825C45.9534 33.8825 47.3684 34.1681 48.6858 34.7226C49.7644 35.1472 50.6944 34.7119 51.3739 33.7458C51.8474 33.0749 52.2891 32.3827 52.735 31.6926C53.3759 30.6763 54.3178 29.8851 55.4294 29.4291C56.0155 29.185 56.5909 28.9195 57.1748 28.6711C58.8735 27.9471 59.3278 27.1614 59.0858 25.3205C59.0072 24.7154 58.9541 24.1081 58.8543 23.5072C58.5337 21.5516 59.4701 19.957 60.2982 18.3263C61.1836 16.5895 61.1093 15.7295 59.5975 14.5044C57.669 12.9742 56.4044 10.7598 56.0664 8.32128C55.7755 6.49735 55.06 5.87734 53.2148 5.89008C50.679 5.95527 48.2144 5.04737 46.3268 3.35272C45.0146 2.20613 44.0209 2.21038 42.7172 3.35272C40.7446 5.07261 38.5279 5.97501 35.9077 5.86248C35.7226 5.86113 35.5376 5.87035 35.3535 5.89008C34.2154 5.97714 33.2918 6.58865 33.1346 7.70764C32.71 10.6973 31.3723 13.0796 28.9836 14.9375C28.0769 15.6446 27.9835 16.702 28.4676 17.7615C28.7507 18.3886 29.06 19.0037 29.3955 19.6067C30.1585 20.9886 30.4118 22.5946 30.1111 24.1442C29.9943 24.7961 29.9497 25.45 29.886 26.0021ZM39.804 37.4383C38.3177 37.3512 37.0564 36.952 36.1667 35.884C35.3174 34.8563 34.5891 33.7119 33.7462 32.5271L30.1365 40.309C31.315 40.0967 32.3809 39.9459 33.434 39.7272C34.2727 39.551 34.863 39.7845 35.2813 40.5511C35.8079 41.5108 36.3791 42.4472 36.9927 43.5003L39.804 37.4383ZM52.0321 41.6063C52.6182 40.6657 53.149 39.8164 53.6756 38.9671C54.3826 37.829 54.6311 37.7292 55.9496 38.0031C56.9073 38.2027 57.8606 38.3831 58.969 38.5997L56.0112 31.7372C55.4337 32.4612 54.9262 32.9899 54.544 33.5972C53.4824 35.2958 52.4207 36.9711 50.1933 37.3448C50.8155 38.8036 51.3951 40.1582 52.0321 41.6063Z" fill="#EF4423"/>
<path d="M6.68488 59.5803C6.35334 59.586 6.03307 59.46 5.79426 59.2299C5.55546 58.9999 5.41759 58.6845 5.4109 58.353C5.4075 58.1815 5.43841 58.0111 5.50182 57.8518C5.56523 57.6924 5.65986 57.5474 5.78013 57.4251C5.90041 57.3028 6.0439 57.2059 6.2022 57.1399C6.36049 57.0739 6.53038 57.0402 6.70188 57.0408C7.03287 57.0543 7.34623 57.1936 7.57789 57.4304C7.80956 57.6672 7.94204 57.9836 7.94826 58.3148C7.94604 58.6493 7.81229 58.9696 7.5759 59.2064C7.33951 59.4432 7.01946 59.5775 6.68488 59.5803Z" fill="#EF4423"/>
<path d="M56.1707 18.6916C56.1753 21.7886 54.9508 24.7608 52.7661 26.9559C50.5814 29.1509 47.615 30.3894 44.518 30.3996C41.4351 30.3889 38.4814 29.1597 36.3013 26.9799C34.1211 24.8001 32.8913 21.8467 32.8801 18.7638C32.8703 17.2307 33.1629 15.7107 33.7411 14.2908C34.3192 12.8709 35.1717 11.5789 36.2496 10.4887C37.3276 9.39857 38.6099 8.53161 40.0232 7.93746C41.4365 7.34331 42.9531 7.03363 44.4862 7.02612C47.5823 7.02443 50.5524 8.25232 52.7435 10.4398C54.9346 12.6274 56.1674 15.5955 56.1707 18.6916ZM53.6228 18.6916C53.6155 16.2778 52.654 13.9647 50.9479 12.2571C49.2418 10.5494 46.9297 9.58574 44.5159 9.57622C43.3142 9.58039 42.1251 9.82173 41.0169 10.2864C39.9087 10.7511 38.9031 11.43 38.0578 12.2842C37.2125 13.1383 36.5442 14.151 36.0911 15.264C35.638 16.377 35.4091 17.5685 35.4175 18.7702C35.4298 21.1836 36.3972 23.4939 38.1081 25.1961C39.819 26.8982 42.1343 27.8537 44.5477 27.8537C46.9644 27.8335 49.2751 26.8589 50.9762 25.1423C52.6773 23.4257 53.6309 21.1062 53.6291 18.6895L53.6228 18.6916Z" fill="#EF4423"/>
<path d="M42.1907 20.594C44.4457 18.545 46.6242 16.5597 48.7985 14.5893C49.7391 13.74 50.4823 13.6147 51.0577 14.2453C51.6331 14.8759 51.4526 15.6212 50.5162 16.4705C48.1424 18.6278 45.7685 20.7851 43.3947 22.9424C42.3882 23.8533 41.9083 23.8384 40.9656 22.8978C40.0228 21.9572 39.0864 21.0293 38.1586 20.0802C37.5364 19.4432 37.4897 18.7213 38.0014 18.1692C38.5132 17.6171 39.3009 17.6405 39.957 18.2902C40.6895 19.027 41.4009 19.7787 42.1907 20.594Z" fill="#EF4423"/>
</g>
<defs>
<clipPath id="clip0_155_183">
<rect width="70.4643" height="79" fill="white" transform="translate(0.535645)"/>
</clipPath>
</defs>
</svg>
