<svg width="97" height="61" viewBox="0 0 97 61" fill="none" xmlns="http://www.w3.org/2000/svg">
<g clip-path="url(#clip0_155_166)">
<path d="M0 1.52039C0.43778 0.596182 1.07294 -0.07342 2.17878 0.00805247C8.09767 0.435783 14.0115 0.906796 19.7381 2.67119C20.7854 3.02095 21.8012 3.45959 22.7747 3.98238C23.9818 4.60106 24.4955 5.60929 24.1867 6.98923C24.1134 7.32276 24.1083 7.67156 24.0577 8.14512H25.0522C29.8197 8.14512 34.5872 8.16294 39.3547 8.1222C39.9064 8.0985 40.4393 7.91359 40.8882 7.59009C43.8869 5.39288 47.1158 3.99511 50.9242 4.37956C53.3434 4.63416 55.5703 5.47944 57.7845 6.41637C61.1526 7.84724 64.541 9.21699 67.9218 10.6275C68.2052 10.7446 68.5038 10.821 68.815 10.9254C68.7594 9.14316 69.1136 8.63395 70.7711 7.97963C76.2042 5.86643 81.8725 4.86076 87.6446 4.38465C89.9398 4.19625 92.2451 4.13005 94.5479 4.05876C96.213 4.00275 97.0152 4.80475 97.0152 6.45711C97.0152 18.4013 97.0152 30.3455 97.0152 42.2897C97.0152 43.9548 96.256 44.7339 94.5783 44.739C90.8837 44.7526 87.19 44.7526 83.4971 44.739C81.7941 44.739 81.2475 44.3291 80.7591 42.7022C80.6402 42.3127 80.5263 41.9384 80.3669 41.3986C79.3344 42.0937 78.3931 42.7047 77.4846 43.3642C77.4051 43.4512 77.3454 43.5545 77.3095 43.6671C77.2737 43.7796 77.2626 43.8987 77.2771 44.0159C77.7199 47.6797 74.7871 51.0939 70.9508 51.4121C70.7812 51.4389 70.6189 51.5001 70.4736 51.592C70.3283 51.6839 70.2031 51.8046 70.1056 51.9468C68.3772 54.7881 65.8037 55.9389 62.5925 55.7658C62.0712 55.7378 61.8333 55.8167 61.5524 56.275C59.7608 59.2742 56.2383 60.7254 53.4699 59.7707C53.2693 59.7073 53.0518 59.7265 52.8651 59.8242C50.4409 61.3518 47.9003 61.1786 45.2964 60.4199C42.819 59.6994 40.7237 58.3042 38.717 56.7333C33.6964 52.7819 28.6227 48.8941 23.7034 44.8154C21.1729 42.7226 18.9511 40.2733 16.5091 37.9106C16.3775 38.3103 16.2409 38.738 16.0916 39.1607C15.7626 40.1002 15.1199 40.6297 14.1127 40.6323C10.1019 40.6323 6.0935 40.6323 2.08515 40.6323C1.05523 40.6323 0.501043 40.0034 0 39.2472V1.52039ZM23.6148 12.2442C21.7574 19.1184 19.9279 25.8883 18.1287 32.6556C18.0401 32.9866 18.0831 33.5213 18.2931 33.7402C20.6136 36.164 22.7949 38.7686 25.3786 40.892C31.2545 45.7447 37.2898 50.4039 43.3453 55.0198C44.5068 55.9033 46.0757 56.2699 47.4878 56.7791C48.0116 56.9701 48.6316 56.8886 49.4363 56.9497C49.1352 56.6034 49.0238 56.4609 48.8973 56.331C46.9918 54.3884 45.0787 52.4483 43.1783 50.4981C42.4495 49.7521 41.7258 48.9959 41.0324 48.2067C40.2075 47.2723 40.2353 46.0986 41.0527 45.3017C41.87 44.5048 43.0518 44.5557 43.9349 45.3984C44.2082 45.653 44.441 45.9535 44.7219 46.2233C47.7687 49.2633 50.8154 52.3032 53.8622 55.3432C54.6466 56.1222 55.5931 56.1986 56.461 55.6385C57.2202 55.1497 57.8275 54.4368 58.3867 53.9301C56.5622 52.0079 54.925 50.2893 53.2928 48.5682C51.9643 47.1679 50.6307 45.7676 49.3123 44.3571C48.3001 43.2852 48.2469 42.1013 49.1225 41.2433C49.9981 40.3853 51.2077 40.4795 52.273 41.5972C52.7108 42.053 53.1258 42.5316 53.5737 42.9823C56.2054 45.6352 58.8119 48.3085 61.4917 50.8978C62.7823 52.1403 64.7814 51.9468 66.0593 50.6432C66.5882 50.1035 66.659 49.7012 66.0416 49.0851C62.433 45.4824 58.8726 41.8365 55.3122 38.1856C54.3379 37.1901 54.3 35.996 55.1679 35.1482C56.0359 34.3003 57.1923 34.3564 58.1843 35.3493C59.1763 36.3422 60.11 37.3632 61.0893 38.3536C63.8299 41.1186 66.5856 43.8734 69.3262 46.6383C69.8829 47.201 70.5029 47.4582 71.2899 47.2163C72.9094 46.7198 73.661 45.1235 72.9221 43.5933C72.6216 42.9644 72.2377 42.3794 71.7808 41.8544C70.7534 40.6934 69.7564 39.4891 68.5772 38.486C62.5309 33.287 56.4576 28.1271 50.3574 23.0062C50.1676 22.8458 49.7248 22.8611 49.4515 22.9527C48.4671 23.2863 47.5257 23.7598 46.5287 24.0323C45.8985 24.1915 45.3349 24.5481 44.9193 25.0507C42.0877 28.3401 38.593 29.6742 34.324 28.5285C31.1001 27.6782 29.6071 25.1831 30.2195 21.886C30.6826 19.4316 31.8188 17.2904 33.2308 15.2791C33.952 14.2606 34.7491 13.2983 35.5842 12.2442H23.6148ZM75.4324 39.8303C76.5129 39.1021 77.5529 38.4402 78.5373 37.7018C78.6559 37.5891 78.7457 37.4492 78.7991 37.2941C78.8524 37.1389 78.8676 36.9731 78.8435 36.8107C76.4665 30.1571 74.0616 23.5154 71.629 16.8856C71.4911 16.548 71.2318 16.2753 70.9027 16.1218C65.4165 13.8745 59.9245 11.6459 54.4265 9.43595C51.2001 8.13493 47.9711 7.82687 44.8991 9.79748C41.3563 12.0736 38.2539 14.8717 36.0018 18.4769C35.1945 19.7702 34.7061 21.2775 34.1899 22.7287C33.952 23.3932 34.0229 24.2207 34.9086 24.4371C35.8449 24.6662 36.8292 24.8928 37.7757 24.8317C39.8633 24.6891 41.2121 23.2914 42.4419 21.7358C42.8392 21.2265 43.3276 20.6792 43.8945 20.4627C45.7063 19.7575 47.5915 19.2508 49.411 18.566C50.5371 18.1433 51.3848 18.3572 52.2452 19.1643C53.7913 20.6155 55.383 22.0184 56.995 23.3907C63.2479 28.7118 69.9892 33.4754 75.4324 39.8303ZM73.661 11.2385C74.1443 12.3766 74.6403 13.4001 75.0224 14.4669C78.059 22.901 81.0771 31.3427 84.0766 39.7921C84.3069 40.4388 84.5549 40.6934 85.2482 40.6679C86.7311 40.6119 88.2165 40.6501 89.6994 40.6501H92.9132V8.16549C86.3313 8.33098 79.9367 9.19153 73.6585 11.2385H73.661ZM12.688 36.5739C13.427 34.1145 14.1709 31.7365 14.8618 29.3203C16.8862 22.2806 18.86 15.2358 19.9835 7.97708C20.1101 7.16745 19.8595 6.85174 19.1864 6.70407C15.9448 6.0472 12.7133 5.34959 9.4591 4.77674C7.70291 4.46613 5.91637 4.37956 4.09945 4.18861V36.5739H12.688Z" fill="#EF4423"/>
</g>
<defs>
<clipPath id="clip0_155_166">
<rect width="97" height="61" fill="white"/>
</clipPath>
</defs>
</svg>
