<svg width="66" height="65" viewBox="0 0 66 65" fill="none" xmlns="http://www.w3.org/2000/svg">
<g clip-path="url(#clip0_155_150)">
<path d="M33.0436 0H57.8728C62.7967 0 65.9959 3.15964 65.998 8.02222C65.998 16.018 65.998 24.0124 65.998 32.0054C66.0125 32.42 65.9676 32.8345 65.8646 33.2367C65.698 33.7913 65.3386 34.2705 64.8493 34.5903C64.3601 34.91 63.7721 35.05 63.1886 34.9855C62.6065 34.915 62.0662 34.6509 61.657 34.2369C61.2479 33.8229 60.9945 33.2838 60.9386 32.7087C60.9174 32.4499 60.928 32.189 60.928 31.9282V8.02222C60.928 5.91232 59.9894 5.00032 57.8262 5.00032H8.16355C5.99187 5.00032 5.07658 5.89771 5.07658 8.03474V56.9381C5.07658 59.1065 5.99399 59.9976 8.22287 59.9976C16.3404 59.9976 24.4579 59.9976 32.5753 59.9976C32.9744 59.9896 33.3725 60.0381 33.7576 60.1416C34.3202 60.3067 34.8061 60.6608 35.1309 61.1424C35.4557 61.6241 35.5988 62.2026 35.5352 62.7774C35.4655 63.3512 35.1983 63.8842 34.7781 64.2875C34.3578 64.6908 33.81 64.9401 33.2258 64.9937C32.9631 65.0188 32.6982 65.0063 32.4334 65.0063C24.3413 65.0063 16.2507 65.0063 8.16143 65.0063C3.22271 65.0063 0.0128609 61.855 0.0107422 57.007V8.01387C0.0107422 3.15964 3.21847 0 8.1466 0H33.0436Z" fill="#EF4423"/>
<path d="M54.6752 55.4585C50.9188 58.2759 46.8551 59.0793 42.4439 57.6373C36.6959 55.7715 33.2424 50.1952 33.9691 44.1034C34.6365 38.5167 39.4904 33.9379 45.3148 33.3974C55.0079 32.5 62.0526 42.0999 58.1309 50.8735C57.8766 51.4369 58.0207 51.6811 58.4487 52.0129C60.6076 53.6825 62.7454 55.3875 64.8917 57.0759C65.7392 57.7479 66.1799 58.5972 65.951 59.6762C65.5442 61.5211 63.3937 62.2557 61.8386 61.0598C59.6521 59.3778 57.5016 57.6519 55.3342 55.9447C55.1138 55.7903 54.9041 55.6338 54.6752 55.4585ZM46.5097 53.311C47.509 53.3196 48.5 53.1329 49.4256 52.7619C50.3512 52.3909 51.1929 51.8429 51.9022 51.1495C52.6114 50.4561 53.1741 49.6312 53.5577 48.7223C53.9413 47.8134 54.1383 46.8387 54.1371 45.8544C54.1422 43.8679 53.3484 41.9603 51.9293 40.5488C50.5103 39.1374 48.5815 38.3369 46.5648 38.3226C44.5475 38.328 42.6137 39.1165 41.1827 40.517C39.7517 41.9176 38.9389 43.8173 38.9205 45.8043C38.9222 47.7893 39.7213 49.693 41.1432 51.0995C42.5652 52.506 44.4945 53.3011 46.5097 53.311Z" fill="#EF4423"/>
<path d="M33.0288 16.6788C38.6031 16.6788 44.1775 16.6788 49.7518 16.6788C51.6184 16.6788 52.8282 18.1585 52.3536 19.8239C52.2432 20.2701 52.003 20.6749 51.6624 20.9885C51.3218 21.3022 50.8956 21.511 50.4361 21.5894C50.1516 21.6457 49.8619 21.673 49.5717 21.6708C38.529 21.6708 27.4862 21.6708 16.4435 21.6708C14.8439 21.6708 13.8121 20.8882 13.5748 19.5338C13.5226 19.2067 13.5379 18.8726 13.6197 18.5514C13.7016 18.2303 13.8484 17.9287 14.0514 17.6647C14.2543 17.4007 14.5092 17.1797 14.8008 17.015C15.0924 16.8503 15.4148 16.7452 15.7486 16.706C16.0643 16.6802 16.3811 16.6712 16.6978 16.6788H33.0288Z" fill="#EF4423"/>
<path d="M22.8484 29.9977C25.0138 29.9977 27.1791 29.9977 29.3423 29.9977C31.0012 29.9977 32.1771 31.0621 32.1581 32.5188C32.139 33.9755 30.9906 34.9918 29.3762 34.9939C25.0201 34.9939 20.6633 34.9939 16.3059 34.9939C14.6999 34.9939 13.5515 33.9504 13.5325 32.5104C13.5134 31.0704 14.6702 30.0061 16.2741 30.0061C18.4648 29.9915 20.6577 29.9977 22.8484 29.9977Z" fill="#EF4423"/>
</g>
<defs>
<clipPath id="clip0_155_150">
<rect width="66" height="65" fill="white"/>
</clipPath>
</defs>
</svg>
