<svg width="83" height="83" viewBox="0 0 83 83" fill="none" xmlns="http://www.w3.org/2000/svg">
<g clip-path="url(#clip0_46_122)">
<path d="M0 69.2466C0.698151 67.1976 1.61461 65.2631 3.03901 63.6031C4.54617 61.826 6.4517 60.43 8.60044 59.5287C8.79065 59.4487 8.9787 59.3601 9.24888 59.2391C7.16091 57.3889 6.06722 55.1582 6.22284 52.424C6.27113 51.3561 6.53702 50.3093 7.00422 49.3477C7.47141 48.3862 8.13006 47.5302 8.93979 46.8323C10.4956 45.4623 12.5162 44.7388 14.588 44.81C16.6598 44.8811 18.6261 45.7414 20.0843 47.2149C22.9612 50.1285 23.5815 55.4846 19.4726 59.1613C20.6052 59.8097 21.7961 60.3695 22.8488 61.1217C23.9014 61.8739 24.8373 62.8314 25.8251 63.6982C29.6314 59.4682 30.1286 59.0597 35.569 56.6259C29.4347 52.0393 30.308 44.3985 34.1618 40.6462C36.1189 38.7239 38.7525 37.6469 41.4957 37.6469C44.2389 37.6469 46.8725 38.7239 48.8295 40.6462C52.7331 44.4482 53.5199 52.0782 47.4246 56.6259C53.1697 59.1569 53.6928 59.84 57.2505 63.7889C58.9464 61.7391 61.1534 60.1733 63.6485 59.2499C61.3681 57.2462 60.3155 54.8102 60.6592 51.8728C60.8878 49.8642 61.8866 48.0224 63.4453 46.735C64.9701 45.4341 66.9239 44.7462 68.9274 44.8049C70.9309 44.8636 72.8411 45.6648 74.2872 47.0528C75.1309 47.8355 75.7921 48.7943 76.2239 49.8611C76.6557 50.9279 76.8476 52.0767 76.7858 53.2259C76.695 55.6316 75.6186 57.605 73.8722 59.1224C75.2079 59.9415 76.5783 60.6354 77.7887 61.554C80.296 63.4431 81.9495 65.9634 82.8509 68.9721C82.8916 69.0682 82.9415 69.1602 83 69.2466V70.8634C81.768 73.7533 80.7629 74.4125 77.5769 74.4125H60.6613C60.6613 75.3441 60.6916 76.1763 60.6613 77.0063C60.6191 78.2709 60.1793 79.4901 59.4044 80.4905C58.6294 81.4909 57.5589 82.2215 56.3449 82.5785C56.0942 82.6563 55.8499 82.7579 55.6035 82.8487H27.3965C27.3576 82.8141 27.3252 82.7579 27.2798 82.7449C23.8063 81.6988 22.3279 79.7189 22.3235 76.1265V74.4233H21.2234C15.6598 74.4233 10.0962 74.4233 4.53258 74.4233C2.39273 74.4233 0.825677 73.2583 0.162109 71.2352C0.115206 71.1132 0.0610731 70.9941 0 70.8785V69.2466ZM41.4849 80.2484C45.8078 80.2484 50.1307 80.2484 54.4536 80.2484C56.2995 80.2484 57.8774 79.0445 58.0071 77.3607C58.1303 75.7267 58.2102 74.0472 57.9682 72.4391C56.9155 65.3971 51.5767 60.0129 44.4569 58.6382C37.7564 57.3413 30.723 60.5489 27.1371 66.5167C25.2934 69.586 24.7271 72.9146 24.9 76.4594C25.0189 78.8543 26.3525 80.2614 28.7647 80.2636C33.004 80.2578 37.2441 80.2528 41.4849 80.2484ZM41.5216 40.2312C40.5019 40.2261 39.4911 40.4219 38.547 40.8075C37.6029 41.1931 36.7441 41.7609 36.0195 42.4784C35.2949 43.196 34.7188 44.0493 34.324 44.9896C33.9292 45.9298 33.7236 46.9387 33.7188 47.9584C33.7135 50.0176 34.521 51.9956 35.9658 53.4627C37.4107 54.9298 39.3762 55.7675 41.4352 55.7937C43.4945 55.8013 45.4737 54.9961 46.9428 53.5529C48.4119 52.1097 49.2522 50.1451 49.2812 48.0859C49.2935 47.059 49.1019 46.0399 48.7175 45.0876C48.3331 44.1353 47.7635 43.2687 47.0418 42.5381C46.32 41.8075 45.4604 41.2274 44.5129 40.8314C43.5653 40.4354 42.5486 40.2314 41.5216 40.2312ZM60.7262 71.7885C60.8582 71.8039 60.9909 71.8126 61.1239 71.8144H78.3766C78.4847 71.8144 78.5928 71.8144 78.6987 71.8144C79.8983 71.7128 80.644 70.6775 80.3025 69.5298C80.1489 69.0127 79.959 68.507 79.734 68.0168C75.9947 59.7838 64.6038 58.4804 59.1008 65.6651C58.9214 65.8985 58.7657 66.3135 58.85 66.5578C59.4271 68.2869 60.0691 69.9902 60.737 71.795L60.7262 71.7885ZM22.2825 71.8166C22.9028 70.0572 23.4389 68.4253 24.0657 66.8301C24.2494 66.3654 24.2645 66.0714 23.9468 65.6845C20.9013 61.9668 16.9804 60.3782 12.2511 61.1693C7.68398 61.9344 4.55636 64.6276 2.8942 68.9505C2.18524 70.7942 2.92662 71.8209 4.90003 71.8209H22.2825V71.8166ZM63.201 52.8541C63.1936 54.3125 63.7653 55.7142 64.7907 56.7514C65.816 57.7885 67.2112 58.3761 68.6695 58.3853C70.1276 58.3809 71.5255 57.8039 72.5621 56.7786C73.5988 55.7533 74.1911 54.3617 74.2115 52.9038C74.2087 51.4459 73.6294 50.0482 72.6001 49.0157C71.5708 47.9832 70.175 47.3995 68.7171 47.3921C67.9954 47.3856 67.2796 47.522 66.6109 47.7935C65.9423 48.065 65.334 48.4662 64.8212 48.974C64.3083 49.4818 63.9012 50.0861 63.6231 50.752C63.345 51.418 63.2016 52.1324 63.201 52.8541ZM19.799 52.8801C19.8021 52.1583 19.6622 51.4431 19.3874 50.7757C19.1126 50.1083 18.7083 49.502 18.1978 48.9917C17.6874 48.4815 17.0809 48.0774 16.4134 47.8028C15.7459 47.5283 15.0306 47.3887 14.3089 47.3921C12.8508 47.3909 11.4515 47.9671 10.4171 48.9947C9.38259 50.0223 8.79706 51.4177 8.78849 52.8757C8.80092 54.3339 9.38597 55.7287 10.4175 56.7594C11.449 57.79 12.8442 58.374 14.3024 58.3853C15.761 58.383 17.159 57.802 18.1896 56.7698C19.2201 55.7376 19.799 54.3386 19.799 52.8801Z" fill="white"/>
<path d="M0 19.4098C0.572787 18.4199 1.46547 18.1303 2.56781 18.113C4.37479 18.087 6.18177 17.9487 7.98875 17.8817C8.46211 17.8666 8.69771 17.685 8.85333 17.2333C9.51258 15.4111 10.228 13.6085 10.8959 11.7907C11.2223 10.9045 11.7454 10.2777 12.7504 10.2496C13.615 10.2193 14.2094 10.7229 14.6093 11.7626C15.3031 13.5717 16.0121 15.3766 16.6692 17.1987C16.8442 17.6828 17.1015 17.8666 17.5943 17.8838C19.5396 17.9509 21.4849 18.0568 23.4302 18.1411C24.2948 18.1778 25.0275 18.4372 25.3971 19.2953C25.7386 20.0907 25.5225 20.8904 24.7487 21.5216C23.2033 22.786 21.6556 24.0483 20.0713 25.2631C19.5958 25.6262 19.5417 25.9504 19.6995 26.4908C20.2421 28.3496 20.7349 30.2258 21.2342 32.0976C21.5022 33.107 21.2882 33.857 20.5857 34.3261C19.786 34.8599 19.0187 34.7151 18.2514 34.205C16.613 33.1113 14.9486 32.0565 13.3167 30.9628C13.1669 30.8325 12.975 30.7608 12.7764 30.7608C12.5778 30.7608 12.3859 30.8325 12.236 30.9628C10.602 32.0609 8.93979 33.1243 7.29709 34.205C6.53409 34.713 5.76461 34.8729 4.96271 34.3304C4.22997 33.8354 4.04193 33.1135 4.33589 32.0263C4.81357 30.2582 5.2545 28.4793 5.79919 26.7329C6.03911 25.9612 5.86404 25.5311 5.22857 25.0599C3.84091 24.0332 2.50945 22.9309 1.18447 21.8177C0.762503 21.4194 0.366848 20.9942 0 20.5446V19.4098ZM7.27547 31.1228C8.62206 30.2452 9.85193 29.5514 10.9499 28.6933C12.2209 27.7055 13.3384 27.7315 14.6028 28.6933C15.703 29.5319 16.9177 30.2236 18.2773 31.1055C17.8926 29.6962 17.5727 28.5117 17.2463 27.3208C16.5481 24.7811 16.5525 24.7767 18.6447 23.1124C19.6023 22.3516 20.5511 21.5778 21.6708 20.6743C19.8141 20.5749 18.1995 20.4581 16.5849 20.4106C15.5603 20.3782 14.9141 19.9135 14.5834 18.9603C14.4256 18.502 14.2483 18.0503 14.0733 17.5985C13.6604 16.5308 13.2454 15.463 12.7764 14.2331C12.1582 15.8478 11.566 17.2592 11.0753 18.7074C10.6862 19.8551 9.99458 20.4128 8.75823 20.4365C7.21278 20.4538 5.66951 20.59 3.89927 20.6873C5.36042 21.8653 6.63352 22.8941 7.91094 23.9294C8.63935 24.513 8.8944 25.2263 8.6307 26.1471C8.16599 27.7315 7.75315 29.3439 7.27547 31.1228Z" fill="white"/>
<path d="M82.9999 20.5447C82.6117 21.0155 82.1945 21.4617 81.7506 21.8805C80.471 22.9612 79.185 24.0419 77.834 25.0167C77.1467 25.5204 76.9435 25.9678 77.2202 26.8129C77.7627 28.4751 78.1669 30.1805 78.623 31.8707C78.9558 33.1028 78.7916 33.816 78.0307 34.3326C77.1661 34.9205 76.3642 34.6612 75.5623 34.1165C73.9974 33.0617 72.3936 32.0631 70.8331 31.0018C70.377 30.6906 70.0636 30.7057 69.614 31.0018C68.0297 32.0825 66.4042 33.0919 64.8134 34.1554C64.0266 34.6828 63.242 34.8816 62.4099 34.3218C61.6771 33.8312 61.4913 33.0638 61.7982 31.9442C62.291 30.1243 62.7579 28.2978 63.3112 26.4952C63.4928 25.8943 63.3436 25.5809 62.8789 25.2178C61.3659 24.0506 59.8874 22.8229 58.3852 21.6341C57.6633 21.0634 57.2851 20.3847 57.566 19.4553C57.8081 18.6491 58.4436 18.2103 59.5114 18.1584C61.4804 18.0547 63.4495 17.9617 65.4186 17.8926C65.9201 17.8753 66.1708 17.6937 66.3459 17.2096C66.9943 15.3874 67.7119 13.5826 68.4058 11.7735C68.8078 10.7273 69.4044 10.2259 70.2625 10.2605C71.2654 10.2972 71.7928 10.9089 72.1191 11.7994C72.787 13.6172 73.5003 15.4199 74.1617 17.242C74.3238 17.6916 74.5573 17.8753 75.0263 17.8904C76.8333 17.9553 78.6403 18.0936 80.4472 18.1217C81.5517 18.139 82.4444 18.4243 83.0172 19.4186L82.9999 20.5447ZM79.1093 20.683C77.2915 20.5836 75.7115 20.4669 74.1379 20.4258C73.001 20.402 72.3483 19.8746 71.9765 18.835C71.4513 17.3544 70.8655 15.8932 70.2279 14.2267C69.5794 15.8975 68.9894 17.3609 68.4641 18.8501C68.0923 19.9027 67.4266 20.402 66.3027 20.4258C64.7226 20.4625 63.1469 20.5857 61.3464 20.683C62.5871 21.6816 63.6008 22.6132 64.727 23.3762C66.08 24.2905 66.4453 25.3647 65.8877 26.908C65.4186 28.2049 65.1484 29.5817 64.7378 31.1185C66.294 30.1048 67.673 29.2165 69.0391 28.3086C69.8215 27.7877 70.591 27.7575 71.3778 28.2805C71.782 28.5507 72.1905 28.8144 72.5968 29.0781L75.7288 31.1056C75.3095 29.5515 75.022 28.1465 74.5443 26.8107C74.0255 25.3582 74.3627 24.3488 75.625 23.4756C76.7749 22.6651 77.834 21.7119 79.1093 20.6809V20.683Z" fill="white"/>
<path d="M47.9844 34.6611C47.6381 34.5343 47.3033 34.3781 46.9836 34.1942C45.3474 33.1502 43.7177 32.0955 42.1117 31.0039C41.66 30.6992 41.3487 30.7013 40.8948 31.0039C39.2889 32.0847 37.6526 33.1265 36.0251 34.1986C35.2599 34.7065 34.4904 34.8643 33.6907 34.3282C32.9644 33.8398 32.7699 33.1027 33.0595 32.0241C33.561 30.1545 34.0452 28.2783 34.5898 26.4195C34.7476 25.8813 34.6244 25.5981 34.2029 25.2696C32.6683 24.0786 31.1661 22.8487 29.6639 21.6297C28.7993 20.9337 28.5615 20.2917 28.8317 19.4682C29.1019 18.6447 29.6833 18.2124 30.7554 18.1541C32.6705 18.0525 34.5834 17.9595 36.5006 17.9012C37.1144 17.8817 37.443 17.685 37.6591 17.0668C38.2859 15.262 39.0014 13.4896 39.6887 11.7086C40.0735 10.71 40.6592 10.2474 41.5022 10.2474C42.3452 10.2474 42.9374 10.7078 43.3221 11.7021C44.0203 13.5091 44.7314 15.3117 45.3798 17.136C45.5787 17.6915 45.8748 17.8731 46.4281 17.8925C48.3972 17.9617 50.3642 18.0589 52.3333 18.1562C53.2151 18.2016 53.8873 18.5734 54.1791 19.4531C54.4428 20.2571 54.2051 20.9229 53.4205 21.5756C53.3383 21.6448 53.2519 21.7097 53.1676 21.7788C51.7367 22.9266 50.3188 24.0894 48.8684 25.2112C48.4059 25.57 48.2459 25.8791 48.4361 26.4886C49.0111 28.395 49.5169 30.3252 50.0119 32.2511C50.3361 33.5566 49.5126 34.6633 47.9844 34.6611ZM32.6121 20.6808C34.0581 21.8458 35.3247 22.8768 36.6043 23.8906C37.3695 24.4979 37.6072 25.235 37.3349 26.1774C36.9437 27.5218 36.5957 28.877 36.2347 30.228C36.1807 30.4441 36.1634 30.6603 36.0985 31.0558C37.6116 30.0637 38.9711 29.1905 40.3155 28.2999C41.1002 27.779 41.8696 27.7596 42.6542 28.2848C43.0563 28.5528 43.4648 28.8187 43.8711 29.0824L46.9274 31.058C46.8367 30.6257 46.7999 30.3966 46.7394 30.1718C46.3871 28.8468 46.0499 27.5153 45.6587 26.199C45.3712 25.2177 45.6327 24.4698 46.4325 23.8538C47.5608 22.9892 48.6609 22.0641 49.7849 21.1801C49.9573 21.073 50.1425 20.9881 50.3361 20.9272L50.1199 20.6635C48.5053 20.577 46.8907 20.469 45.2739 20.4128C44.284 20.3804 43.6572 19.9264 43.3178 19.0165C42.8192 17.6807 42.3149 16.3471 41.8048 15.0156C41.727 14.8168 41.6167 14.6287 41.4568 14.3023C40.83 15.9537 40.2507 17.43 39.706 18.9192C39.3515 19.894 38.7139 20.3868 37.6526 20.4171C36.051 20.4647 34.4472 20.5814 32.6143 20.6808H32.6121Z" fill="white"/>
<path d="M54.5314 6.66162C54.8664 6.95774 55.316 7.20198 55.5235 7.57808C55.8196 8.11844 55.6359 8.6761 55.1604 9.10407C53.6747 10.4355 52.1905 11.7691 50.7078 13.1049C50.4368 13.3679 50.1526 13.6168 49.8561 13.8506C49.5963 14.0498 49.2708 14.1434 48.9448 14.1125C48.6189 14.0816 48.3167 13.9286 48.0989 13.6842C47.8756 13.4425 47.7575 13.1221 47.7705 12.7934C47.7835 12.4647 47.9265 12.1546 48.168 11.9313C49.9534 10.2907 51.7669 8.6761 53.589 7.0723C53.7943 6.8929 54.1121 6.83886 54.5314 6.66162Z" fill="white"/>
<path d="M35.3766 12.8909C35.0675 13.2821 34.8448 13.8376 34.4882 13.9435C34.241 14.0076 33.9833 14.0199 33.7311 13.9798C33.4789 13.9396 33.2378 13.8478 33.0227 13.7101C31.8188 12.759 30.7121 11.687 29.5644 10.6581C28.983 10.135 28.3907 9.62493 27.8352 9.08241C27.2797 8.53988 27.1976 7.74663 27.6882 7.21275C28.1789 6.67887 28.9224 6.61835 29.5622 7.17816C31.3044 8.71136 33.0292 10.2626 34.7368 11.8318C34.9875 12.0674 35.1129 12.4456 35.3766 12.8909Z" fill="white"/>
<path d="M40.2032 3.62915C40.2032 2.87696 40.1859 2.11613 40.2032 1.37259C40.227 0.546908 40.75 0.0065421 41.4828 5.77231e-05C42.2155 -0.00642665 42.7688 0.53394 42.7797 1.35313C42.8034 2.88345 42.8013 4.41592 42.7797 5.94839C42.7688 6.78271 42.2501 7.30146 41.4979 7.30579C40.7457 7.31011 40.2248 6.79784 40.201 5.96784C40.1859 5.19837 40.2032 4.40943 40.2032 3.62915Z" fill="white"/>
</g>
<defs>
<clipPath id="clip0_46_122">
<rect width="83" height="82.8379" fill="white"/>
</clipPath>
</defs>
</svg>
