<svg width="67" height="67" viewBox="0 0 67 67" fill="none" xmlns="http://www.w3.org/2000/svg">
<g clip-path="url(#clip0_53_216)">
<path d="M67.0001 66.3211C66.6921 66.8509 66.23 67.0018 65.6303 67.0018C54.7269 66.9887 43.8246 66.9887 32.9234 67.0018C32.3728 67.0018 31.8664 66.9608 31.6305 66.3539C31.3945 65.747 31.7567 65.4042 32.1221 65.0417C33.7257 63.4342 35.3288 61.8257 36.9314 60.216C37.0805 60.0667 37.2182 59.9076 37.464 59.6419H36.5873C26.9741 59.6419 17.3608 59.6419 7.74755 59.6419C4.68497 59.6419 2.39417 58.3297 0.896473 55.6413C0.320118 54.6047 0.0199097 53.4372 0.0247243 52.2509C0.0116153 38.4059 0.0116153 24.561 0.0247243 10.716C0.0247243 6.47921 3.27903 3.05761 7.36084 2.90671C8.39645 2.86898 8.7422 3.19048 8.74383 4.24517C8.75039 7.0883 8.75039 9.93143 8.74383 12.7746V13.6193H9.58609C19.2463 13.6193 28.9054 13.6226 38.5635 13.6291C38.7871 13.6394 39.0104 13.6007 39.2175 13.5157C39.4247 13.4307 39.6108 13.3015 39.763 13.1371C43.6957 9.16543 47.6398 5.20363 51.5955 1.25168C53.2488 -0.40499 54.8727 -0.400068 56.5326 1.26316C57.3355 2.06689 58.1374 2.87117 58.9381 3.676C60.5243 5.27198 60.5178 6.92537 58.9185 8.53447C57.4251 10.037 55.9307 11.5383 54.4352 13.0386C54.2894 13.1863 54.155 13.3454 53.901 13.6242H60.8881C62.1072 13.6242 62.3973 13.9145 62.3973 15.13C62.3973 21.3204 62.3973 27.5102 62.3973 33.6995V34.6754L63.4476 33.6322C63.972 33.1073 64.4947 32.5791 65.0207 32.0543C65.822 31.2555 66.2808 31.2604 67.0116 32.0739L67.0001 66.3211ZM1.96813 47.3481C3.22167 46.0802 4.54405 45.2601 6.13187 44.9681C6.67262 44.8713 6.78732 44.64 6.77257 44.148C6.74635 42.3978 6.74144 40.6476 6.78077 38.8991C6.78483 38.5183 6.92425 38.1514 7.17404 37.8641C7.36575 37.6804 7.92289 37.6066 8.10805 37.7509C8.40628 37.9838 8.69468 38.4349 8.70451 38.8007C8.75694 41.0528 8.7422 43.3065 8.72417 45.5602C8.72417 46.3623 8.34893 46.6461 7.5542 46.7642C6.80862 46.8757 6.03519 46.9955 5.35025 47.2907C3.19382 48.2224 1.71578 50.7123 2.02221 52.7413C2.4843 55.8152 4.60795 57.6621 7.73445 57.6621C18.1364 57.6698 28.5384 57.6654 38.9404 57.649C39.2728 57.6322 39.5888 57.4993 39.8334 57.2734C41.0313 56.1252 42.1848 54.9294 43.3679 53.7665C43.8382 53.3039 44.4412 53.2892 44.8279 53.6763C45.2409 54.0896 45.2212 54.6227 44.7673 55.1394C44.6526 55.2706 44.5232 55.3887 44.4003 55.5134C41.4398 58.4823 38.4794 61.4522 35.5189 64.4233C35.3551 64.5873 35.2092 64.7596 35.0142 64.9711H64.9846V60.385C64.9158 60.3522 64.8978 60.3341 64.8781 60.3341C64.3997 60.3259 63.9195 60.3226 63.4411 60.3111C62.6857 60.2931 62.294 59.9716 62.2662 59.3729C62.2449 58.7463 62.6611 58.3691 63.4329 58.3428C63.949 58.3264 64.4652 58.3428 64.983 58.3428V55.3903C64.4078 55.3903 63.8851 55.4117 63.364 55.3903C62.6332 55.3526 62.2432 54.9704 62.2662 54.3619C62.2891 53.7534 62.666 53.4499 63.3804 53.4286C63.9179 53.4105 64.4554 53.4286 64.9879 53.4286V50.4367C64.4193 50.4367 63.8966 50.4482 63.3755 50.4367C62.666 50.4154 62.2498 50.0267 62.2645 49.4247C62.2776 48.849 62.6824 48.4897 63.3657 48.4717C63.9032 48.4586 64.4423 48.4717 65.0043 48.4717V45.4684C64.3833 45.4684 63.7983 45.4963 63.2166 45.4602C62.4874 45.4175 62.004 44.7122 62.3678 44.1348C62.5611 43.8265 63.033 43.605 63.4148 43.5296C63.9294 43.4279 64.4783 43.505 65.0059 43.505V34.8755C64.77 35.0986 64.5979 35.2544 64.4341 35.4201C59.0004 40.8636 53.57 46.3087 48.1429 51.7555C47.4022 52.4986 46.8205 52.6298 46.3584 52.159C45.8668 51.6669 45.9881 51.124 46.7419 50.3662C51.1508 45.9419 55.5631 41.5202 59.9786 37.1014C60.1277 36.9631 60.245 36.7941 60.3225 36.6061C60.4 36.4181 60.4359 36.2155 60.4276 36.0122C60.4145 29.473 60.4112 22.9322 60.4178 16.3897V15.6237C60.1147 15.6106 59.882 15.5925 59.6493 15.5925C57.2716 15.5925 54.8973 15.6024 52.518 15.5794C52.3036 15.5721 52.0903 15.6125 51.8934 15.6976C51.6965 15.7827 51.5209 15.9104 51.3792 16.0715C44.9044 22.5735 38.4264 29.0673 31.9451 35.553C31.6179 35.8655 31.2304 36.1077 30.8062 36.2648C29.2381 36.857 27.6519 37.3999 26.0723 37.9641C25.933 38.015 25.8003 38.0904 25.4906 38.2381H26.4147C32.4547 38.2381 38.4952 38.2381 44.5363 38.2381C45.313 38.2381 45.7652 38.6022 45.7833 39.1993C45.8013 39.7963 45.3425 40.2048 44.5903 40.2048C35.65 40.2048 26.7091 40.2048 17.7677 40.2048C17.0451 40.2048 16.6207 39.8291 16.6207 39.237C16.6207 38.6449 17.0369 38.2528 17.7546 38.2414C18.5838 38.2249 19.4129 38.2036 20.2404 38.2496C20.7238 38.2742 20.9139 38.0855 21.0597 37.6492C22.0101 34.8837 22.9802 32.1248 23.9699 29.3724C24.1308 28.9485 24.3761 28.5618 24.6909 28.2357C25.9625 26.9235 27.2717 25.6277 28.5663 24.3286C29.3004 23.5938 29.8165 23.4789 30.3032 23.9399C30.7899 24.4008 30.7079 24.965 29.9492 25.7261C28.7842 26.8956 27.6175 28.0635 26.5426 29.1395C28.073 30.6781 29.556 32.1707 30.9373 33.5682L51.1203 13.3323L46.6665 8.81167C46.5398 9.01201 46.3979 9.2023 46.2421 9.38085C42.0363 13.6073 37.8272 17.8304 33.6148 22.0503C33.4149 22.2504 33.2036 22.5424 32.9709 22.5752C32.6022 22.6194 32.104 22.5916 31.8664 22.3701C31.6567 22.1749 31.6583 21.6664 31.7026 21.3138C31.7304 21.0956 31.9975 20.8972 32.1811 20.7118C33.6886 19.1929 35.1989 17.6762 36.7118 16.1617C36.8544 16.0174 36.9839 15.8583 37.1723 15.6483H8.73073V16.4766C8.73073 22.3411 8.73073 28.204 8.73073 34.0652C8.73899 34.3483 8.71313 34.6314 8.65371 34.9083C8.61471 35.1274 8.49277 35.3231 8.3133 35.4544C8.13382 35.5858 7.91063 35.6429 7.6902 35.6136C7.46848 35.619 7.25313 35.5392 7.08829 35.3907C6.92346 35.2421 6.82163 35.0361 6.80371 34.8148C6.76897 34.533 6.75638 34.2489 6.76602 33.9652C6.76602 24.6025 6.76602 15.2399 6.76602 5.87723V4.99969C6.61099 5.00573 6.45657 5.02272 6.30393 5.05054C6.0508 5.11422 5.8027 5.19646 5.56163 5.29658C3.13811 6.3972 1.97633 8.31795 1.97469 10.9555C1.96813 22.8551 1.96813 34.7552 1.97469 46.6559L1.96813 47.3481ZM55.9853 8.7149C56.5687 8.11456 57.1848 7.5011 57.7747 6.86304C58.2401 6.36111 58.2663 5.82803 57.8058 5.34415C56.8106 4.30531 55.7952 3.28835 54.7596 2.29325C54.3238 1.87334 53.7945 1.87498 53.3471 2.28505C52.6753 2.89687 52.0362 3.54969 51.425 4.15003L55.9853 8.7149ZM48.2527 7.42401L52.6458 11.8724L54.3631 10.2321C52.873 8.72857 51.3879 7.231 49.9077 5.73945C49.38 6.28238 48.8147 6.85319 48.2527 7.42401ZM25.4234 31.2308C24.2501 33.7355 24.2534 33.7667 25.9854 35.4365C26.0329 35.4824 26.0723 35.553 26.1263 35.571C26.2771 35.6202 26.4541 35.7153 26.5868 35.6727C27.4061 35.402 28.2254 35.097 28.9775 34.8296L25.4234 31.2308Z" fill="#EF4423"/>
<path d="M53.4813 60.0223C51.823 60.0223 50.1664 60.0223 48.5081 60.0223C47.9739 60.0223 47.484 59.9436 47.266 59.3843C47.0661 58.8659 47.3152 58.4674 47.6822 58.1016C51.1244 54.657 54.5655 51.2081 58.0056 47.7548C58.3693 47.389 58.7642 47.138 59.2837 47.3496C59.8031 47.5612 59.9113 48.0287 59.9113 48.5405C59.9113 51.9309 59.9113 55.3213 59.9113 58.7101C59.9113 59.6615 59.5442 60.0108 58.6004 60.0223C56.8831 60.0223 55.1822 60.0223 53.4813 60.0223ZM57.8892 58.0081V50.9172L50.8186 58.0081H57.8892Z" fill="#EF4423"/>
</g>
<defs>
<clipPath id="clip0_53_216">
<rect width="67" height="67" fill="white"/>
</clipPath>
</defs>
</svg>
