<svg width="79" height="94" viewBox="0 0 79 94" fill="none" xmlns="http://www.w3.org/2000/svg">
<g clip-path="url(#clip0_77_19)">
<path d="M36.9698 0H41.5553C42.4601 0.117388 43.3626 0.244559 44.2674 0.352164C52.778 1.4111 60.2958 4.69307 66.422 10.7312C75.3385 19.5206 79.2588 30.2959 78.4493 42.7683C77.9137 51.0075 74.9106 58.3076 69.5792 64.622C66.0625 68.7795 61.7998 72.0199 56.9453 74.4753C56.307 74.8006 55.9475 75.0525 56.1676 75.9011C56.3559 76.6152 56.2801 77.4271 56.1872 78.1779C55.791 81.3278 55.3581 84.4753 54.913 87.6179C54.6972 89.3182 53.8658 90.8805 52.5761 92.0093C51.2864 93.1382 49.6277 93.7553 47.9138 93.744C45.1014 93.7685 42.289 93.744 39.479 93.744C37.4345 93.744 35.4951 93.228 33.903 91.971C32.4577 90.8289 30.917 90.9928 29.2124 91.0588C29.3861 92.2938 29.0779 93.2867 27.9896 93.9054H17.5348C16.5761 93.3381 16.246 92.509 16.2533 91.3889C16.2924 85.6736 16.2533 79.9583 16.29 74.243C16.29 73.3479 16.5345 72.4504 16.7008 71.4208C13.4598 69.1397 10.5822 66.3817 8.16575 63.2403C0.457278 53.0349 -1.86114 41.6042 1.53089 29.3714C5.8669 13.7784 16.0821 4.03276 32.1007 0.706773C33.7001 0.379065 35.3435 0.23233 36.9698 0ZM43.9617 69.6355L44.0351 69.8801C45.747 69.8801 47.4589 69.8801 49.1708 69.8801C50.683 69.8486 52.1601 70.3372 53.3552 71.2643C53.925 71.7142 54.3334 71.7118 54.9742 71.4061C67.1312 65.5563 76.9184 51.6164 74.7834 35.456C73.453 25.4292 68.8357 17.1729 60.89 10.9097C53.8125 5.33137 45.6883 3.06921 36.7057 3.79554C30.4939 4.28466 24.6954 6.0626 19.5646 9.61847C9.40077 16.6642 4.18434 26.5712 3.91288 38.8065C3.60718 52.2327 9.53772 62.5286 20.8583 69.7455C22.5556 70.8265 24.265 71.4575 26.3364 71.3254C28.6426 71.1689 29.4472 70.7042 30.2225 68.4249C30.0562 68.3589 29.8874 68.288 29.7162 68.222C17.1606 63.5362 10.0073 54.5658 9.09752 41.1787C8.36384 30.3399 12.5042 21.4331 21.2154 14.8007C24.0596 12.6339 27.2657 11.1323 30.6822 10.0929C31.773 9.76032 32.7561 10.2299 33.0789 11.1739C33.4286 12.1888 32.9322 13.1303 31.8243 13.5681C31.6531 13.6341 31.4795 13.6928 31.3058 13.7466C19.2296 17.6106 11.7803 28.6891 12.7194 41.3817C13.5509 52.6094 20.9146 61.7876 31.6556 65.0256C32.2523 65.2066 32.5164 65.0671 32.8197 64.5731C34.168 62.3901 35.5367 60.22 36.9258 58.063C37.5543 57.0848 38.4054 56.7522 39.3396 57.1948C40.56 57.7538 41.7473 58.3825 42.8955 59.0779C43.5721 59.4995 44.1583 60.0512 44.6201 60.7011C45.0818 61.351 45.41 62.086 45.5856 62.8637C45.7456 63.6723 45.8639 64.4885 45.9402 65.3093C46.1676 65.2652 46.3755 65.2359 46.5761 65.1845C59.8091 61.7754 68.0091 48.0092 65.8326 34.7811C64.353 25.7911 59.1781 19.4106 51.1884 15.2506C49.8165 14.5365 48.3051 14.0963 46.8524 13.5387C45.9231 13.1841 45.4266 12.4822 45.5098 11.5823C45.5355 11.1815 45.6999 10.8022 45.9748 10.5095C46.2497 10.2168 46.6179 10.0288 47.0163 9.97797C47.4702 9.95206 47.9248 10.0161 48.354 10.1663C61.7215 14.248 73.2158 28.403 69.0265 45.7495C65.9231 58.5888 57.8869 66.7815 44.6465 69.3665C44.4105 69.4352 44.1813 69.5252 43.9617 69.6355ZM29.2393 87.3293C29.7089 87.3293 30.0684 87.3415 30.4279 87.3293C32.4675 87.2608 34.2992 87.7132 36.0209 88.9458C37.0134 89.6016 38.1658 89.9744 39.3543 90.0243C42.218 90.1759 45.0965 90.0952 47.97 90.0732C48.7599 90.0833 49.5269 89.8081 50.1302 89.2982C50.7335 88.7883 51.1327 88.078 51.2545 87.2975C51.7436 84.0351 52.1936 80.7678 52.5653 77.4907C52.8294 75.1674 51.2936 73.5631 48.9434 73.5533C46.8646 73.5533 44.7859 73.5729 42.7071 73.5533C40.3447 73.5215 39.0045 71.2447 40.0928 69.1513C40.4875 68.3242 40.9369 67.5244 41.4379 66.757C42.805 64.8006 42.377 62.2425 39.1953 61.3768C36.9698 64.9033 34.7403 68.4372 32.5066 71.9784C31.795 73.1107 30.9366 74.0742 29.6746 74.6318C29.5671 74.6906 29.4748 74.7736 29.4047 74.8742C29.3347 74.9747 29.289 75.0902 29.2711 75.2114C29.2344 79.1879 29.2393 83.1816 29.2393 87.3293ZM19.9828 75.0304V90.193H25.5172V75.0304H19.9828Z" fill="black"/>
<path d="M27.5373 47.8159C27.6082 46.2581 27.7085 44.7027 27.7256 43.1449C27.7064 42.7337 27.5593 42.3387 27.305 42.015C25.4512 39.6257 23.5584 37.2632 21.6801 34.891C20.4891 33.387 20.9465 32.0517 22.8076 31.5284C25.6273 30.736 28.4324 29.9338 31.2742 29.1757C31.5814 29.1002 31.8703 28.9639 32.124 28.7748C32.3777 28.5858 32.591 28.3479 32.7513 28.0752C34.3678 25.5905 36.0161 23.1278 37.6645 20.6675C38.6794 19.1513 40.0954 19.1537 41.1152 20.6675C42.8026 23.184 44.451 25.7274 46.1629 28.2195C46.4569 28.6245 46.8724 28.9252 47.349 29.0779C50.2445 29.9338 53.1621 30.7213 56.0699 31.543C57.7818 32.0321 58.2416 33.4139 57.1313 34.8274C55.2824 37.1825 53.3969 39.5107 51.5749 41.8878C51.2613 42.3132 51.0901 42.8267 51.0858 43.3552C51.1592 46.2899 51.3108 49.2246 51.4282 52.1593C51.5114 54.2698 50.3815 55.094 48.4275 54.3603C45.6835 53.3381 42.9445 52.2987 40.1834 51.3229C39.6834 51.1615 39.1452 51.1615 38.6451 51.3229C35.8254 52.3182 33.0325 53.387 30.225 54.419C28.4177 55.0818 27.2903 54.2234 27.3466 52.3134C27.3955 50.8167 27.3466 49.32 27.3466 47.8233L27.5373 47.8159ZM26.0064 34.4337C27.3832 36.175 28.5669 37.8575 29.9413 39.3567C31.2008 40.7311 31.5823 42.1935 31.4087 44.0277C31.2204 46.0135 31.3671 48.0287 31.3671 50.0659C31.5432 50.0023 31.8562 49.8971 32.1619 49.7846C34.2211 49.0216 36.2632 48.2048 38.3492 47.5274C39.0338 47.323 39.763 47.323 40.4475 47.5274C42.2499 48.0947 44.001 48.8186 45.774 49.4838C46.361 49.7015 46.9528 49.902 47.6547 50.1466C47.5495 47.5102 47.4101 45.0108 47.3832 42.509C47.4031 41.7953 47.6226 41.1015 48.0166 40.5061C48.7356 39.4129 49.6234 38.4322 50.4377 37.4026L52.7684 34.4337C50.4328 33.7734 48.2587 33.0764 46.0455 32.5628C45.4526 32.4398 44.8929 32.1913 44.404 31.834C43.9151 31.4767 43.5083 31.019 43.211 30.4914C42.0152 28.5619 40.7117 26.6983 39.3862 24.7027C37.9628 26.8475 36.5909 28.8602 35.2776 30.9145C35.052 31.2921 34.7532 31.6207 34.3987 31.8811C34.0442 32.1415 33.6413 32.3284 33.2135 32.4308C30.8609 33.0495 28.5229 33.7245 26.0064 34.4337Z" fill="black"/>
<path d="M41.2008 10.7117C41.1948 10.9479 41.1422 11.1806 41.0461 11.3964C40.9499 11.6122 40.8122 11.8069 40.6406 11.9694C40.4691 12.1318 40.2672 12.2588 40.0464 12.3431C39.8257 12.4273 39.5905 12.4672 39.3544 12.4603C38.8766 12.4508 38.4216 12.2549 38.0862 11.9145C37.7509 11.5741 37.5618 11.1162 37.5593 10.6384C37.5728 10.1615 37.7679 9.70789 38.1048 9.37014C38.4416 9.03239 38.8947 8.83606 39.3715 8.82129C39.8624 8.83656 40.328 9.04252 40.6696 9.39548C41.0111 9.74843 41.2017 10.2206 41.2008 10.7117Z" fill="black"/>
</g>
<defs>
<clipPath id="clip0_77_19">
<rect width="78.5521" height="93.9103" fill="white"/>
</clipPath>
</defs>
</svg>
