<svg width="72" height="61" viewBox="0 0 72 61" fill="none" xmlns="http://www.w3.org/2000/svg">
<g clip-path="url(#clip0_53_262)">
<path d="M0 22.413C0.370958 21.9753 0.741912 21.5728 1.39851 21.8287C2.0551 22.0847 2.08478 22.617 2.08478 23.2013C2.08478 33.5201 2.08478 43.8383 2.08478 54.1559C2.08478 57.2126 3.79489 58.9171 6.85715 58.9171H64.2517C67.301 58.9171 68.9982 57.2051 68.9982 54.1466C68.9982 41.262 68.9982 28.3761 68.9982 15.4891C68.9982 12.3619 67.3474 10.6852 64.2295 10.6462C63.3893 10.6462 62.9311 10.2919 62.9015 9.65946C62.8718 9.02698 63.3763 8.59111 64.2221 8.57441C68.2766 8.4928 71.0848 11.2231 71.0848 15.2702C71.0848 28.297 71.0848 41.322 71.0848 54.345C71.0848 58.2995 68.3731 61.0056 64.4076 61.0074C45.1833 61.0074 25.959 61.0074 6.73474 61.0074C3.26628 61.0074 0.92369 59.1527 0.109438 55.7751C0.083284 55.7131 0.0476129 55.6555 0.0037132 55.6044L0 22.413Z" fill="#EF4423"/>
<path d="M0 5.89238C0.370958 4.51798 0.901424 3.24003 1.97906 2.24215C3.18652 1.12928 4.60915 0.506071 6.24507 0.500507C13.114 0.479486 19.9835 0.479486 26.8536 0.500507C28.011 0.500507 29.0794 0.890011 30.0754 1.45758C33.8573 3.59058 37.6541 5.70319 41.4341 7.83991C42.2761 8.33629 43.2391 8.58987 44.2163 8.57255C45.6507 8.54905 47.0844 8.54905 48.5176 8.57255C49.4858 8.58924 50.0533 9.46099 49.5321 10.1436C49.4163 10.2794 49.2747 10.391 49.1156 10.4719C48.9564 10.5527 48.7828 10.6013 48.6048 10.6147C46.8705 10.6555 45.127 10.726 43.4113 10.585C42.426 10.4884 41.4706 10.1924 40.6032 9.7151C36.7656 7.63588 32.9689 5.47505 29.1684 3.32535C28.2848 2.81686 27.2814 2.55368 26.262 2.56303C19.7628 2.57787 13.263 2.57787 6.76257 2.56303C3.83942 2.56303 2.09406 4.30282 2.09221 7.21484C2.09221 10.8243 2.09221 14.4331 2.09221 18.0412C2.09221 18.8907 1.73794 19.4286 1.11102 19.3396C0.719656 19.2821 0.378378 18.8982 0.0129849 18.6607L0 5.89238Z" fill="#EF4423"/>
<path d="M20.4639 33.3915C20.5251 23.4239 30.1366 16.142 39.6146 18.9242C40.3379 19.1375 40.6811 19.6308 40.5234 20.2355C40.3657 20.8401 39.8204 21.0924 39.0841 20.9181C38.9709 20.8921 38.8578 20.8717 38.7447 20.8439C32.7611 19.3044 26.4585 22.1923 23.8748 27.8216C21.6268 32.7201 22.1647 37.4535 25.5961 41.5971C29.0274 45.7407 33.5846 47.2264 38.8022 45.8631C44.0197 44.4998 47.1487 40.9498 48.2616 35.6933C48.6326 33.9813 48.5342 32.2453 48.1614 30.5277C47.9759 29.6597 48.2264 29.1292 48.8625 28.9697C49.4987 28.8102 49.9754 29.2182 50.1794 30.0566C52.14 38.1472 46.6034 46.6421 38.4034 48.1185C30.0476 49.6246 22.4114 44.4201 20.7736 36.0717C20.603 35.1907 20.564 34.2855 20.4639 33.3915Z" fill="#EF4423"/>
<path d="M51.7951 19.5121L49.5693 17.4236C49.4321 17.5534 49.2151 17.7482 49.0129 17.9503C44.6851 22.1941 40.3572 26.4366 36.0294 30.6779C34.8609 31.8223 34.0985 31.8093 32.9894 30.6352L31.4444 28.9993L28.9478 31.3326C29.098 31.5181 29.2167 31.6776 29.354 31.8223C30.2999 32.8369 31.3201 33.7921 32.1788 34.8772C32.9004 35.7897 33.7109 36.1458 34.8497 36.0253C35.3413 35.9733 35.7085 35.8676 36.0609 35.5133C37.7117 33.8607 39.3884 32.2341 41.0559 30.5982C41.1986 30.4467 41.3517 30.3054 41.514 30.1753C41.9944 29.8266 42.484 29.8488 42.8884 30.2754C43.2927 30.702 43.2927 31.1861 42.9236 31.6535C42.8352 31.7605 42.7398 31.8615 42.638 31.9559C40.8555 33.7068 39.062 35.4447 37.2962 37.2123C36.6878 37.8207 36.0368 38.1824 35.1446 38.0878C34.5894 38.0364 34.0306 38.0364 33.4753 38.0878C33.1405 38.1181 32.8032 38.0677 32.4918 37.9409C32.1804 37.814 31.9039 37.6145 31.6855 37.3589C30.1683 35.7396 28.6399 34.1278 27.1375 32.4919C26.4216 31.711 26.4642 30.8356 27.2321 30.0955C28.2312 29.1335 29.244 28.1857 30.2703 27.2521C31.1105 26.4898 31.9637 26.5417 32.7705 27.369C33.0617 27.6657 33.3381 27.9755 33.6219 28.2815L34.6624 29.3944C35.0082 28.9183 35.3798 28.4613 35.7753 28.0256C39.9102 23.945 44.0526 19.8781 48.2024 15.8248C49.2856 14.7638 50.0572 14.7638 51.1033 15.8248C51.9806 16.7132 52.8616 17.5998 53.7259 18.4994C54.5643 19.3711 54.5587 20.2596 53.6981 21.1072C51.2102 23.5592 48.7174 26.0045 46.2196 28.4429C45.6298 29.0197 45.0344 29.0605 44.5763 28.5857C44.1181 28.1109 44.2053 27.5489 44.7766 26.9479C47.1117 24.4922 49.4191 22.0327 51.7951 19.5121Z" fill="#EF4423"/>
<path d="M54.7589 33.4008C54.6866 44.5295 45.2401 53.3175 34.1596 52.5162C31.0078 52.2971 27.9611 51.2921 25.2974 49.5931C24.5555 49.122 24.3478 48.5618 24.7021 47.9942C25.0563 47.4267 25.6517 47.3729 26.3992 47.831C36.6877 54.1076 49.6397 48.6583 52.2642 36.9249C52.9783 33.7346 52.7131 30.5833 51.6151 27.5025C51.5168 27.2225 51.3276 26.8645 51.4296 26.653C51.5909 26.2969 51.8951 25.8926 52.2364 25.759C52.7799 25.5476 53.2658 25.874 53.4216 26.4268C53.8334 27.8902 54.2359 29.361 54.5456 30.8486C54.7163 31.6777 54.6921 32.5494 54.7589 33.4008Z" fill="#EF4423"/>
<path d="M61.3934 7.47456C61.4064 7.95866 61.1189 8.47058 60.581 8.81928C59.4567 9.55235 58.4859 10.4973 57.7228 11.6015C57.5609 11.8532 57.3364 12.0586 57.0713 12.1975C56.8063 12.3365 56.5096 12.4042 56.2105 12.3941C55.9114 12.384 55.62 12.2964 55.3649 12.1399C55.1098 11.9834 54.8997 11.7634 54.7551 11.5013C54.0885 10.3604 53.1475 9.40403 52.0175 8.71912C51.7581 8.57026 51.5417 8.35664 51.3895 8.09914C51.2374 7.84164 51.1547 7.54907 51.1494 7.25003C51.1442 6.95098 51.2167 6.6557 51.3597 6.39303C51.5027 6.13036 51.7115 5.9093 51.9655 5.75146C53.0645 5.01996 54.0096 4.08047 54.7477 2.98597C54.9058 2.73951 55.1242 2.53751 55.3823 2.39911C55.6403 2.26072 55.9294 2.19052 56.2222 2.19516C56.515 2.19981 56.8017 2.27914 57.0552 2.42565C57.3087 2.57216 57.5207 2.78099 57.6709 3.03234C58.3961 4.1657 59.381 5.10991 60.5439 5.7867C61.0985 6.12798 61.3804 6.64361 61.3934 7.47456ZM56.341 4.92051L54.0893 7.20747C54.7904 7.87704 55.6992 8.7488 56.4745 9.49257C57.0217 8.9046 57.873 7.99019 58.6669 7.1407L56.341 4.92051Z" fill="#EF4423"/>
<path d="M64.9917 49.1814C64.5892 49.7656 64.3574 50.3647 63.9215 50.6819C62.8227 51.4522 61.8609 52.4014 61.0763 53.49C60.914 53.7413 60.6895 53.9462 60.4244 54.0849C60.1594 54.2235 59.863 54.291 59.564 54.2809C59.2651 54.2709 58.9739 54.1835 58.7189 54.0273C58.4638 53.8711 58.2535 53.6515 58.1086 53.3899C57.4411 52.2496 56.5003 51.2935 55.3709 50.6077C55.1102 50.4599 54.8925 50.2467 54.7393 49.9891C54.5861 49.7315 54.5028 49.4384 54.4976 49.1387C54.4923 48.839 54.5653 48.5432 54.7094 48.2804C54.8535 48.0175 55.0636 47.7968 55.319 47.64C56.4206 46.9111 57.3663 45.9704 58.1012 44.8727C58.2551 44.6306 58.4676 44.4313 58.7191 44.2932C58.9705 44.1552 59.2527 44.0828 59.5396 44.0828C59.8264 44.0828 60.1087 44.1552 60.3601 44.2932C60.6115 44.4313 60.824 44.6306 60.978 44.8727C61.7596 46.0233 62.7698 47.0007 63.9456 47.7439C64.3611 48.0258 64.5911 48.6119 64.9917 49.1814ZM62.0389 49.0404L59.6945 46.7961L57.4205 49.0831L59.8206 51.3978L62.0389 49.0404Z" fill="#EF4423"/>
<path d="M16.3666 32.798C16.3555 30.589 16.9231 27.9403 18.1046 25.4363C18.3095 25.0692 18.6517 24.7984 19.0561 24.6833C19.3139 24.6202 19.8406 24.8966 19.9427 25.1451C20.0834 25.5434 20.0742 25.9793 19.9167 26.3712C18.8698 28.7493 18.3709 31.3324 18.457 33.9294C18.5616 37.7801 19.9814 41.479 22.48 44.4108C22.5969 44.5537 22.7267 44.6853 22.851 44.83C23.3314 45.4198 23.3388 46.0189 22.8732 46.4307C22.4077 46.8425 21.7733 46.8128 21.3041 46.2026C20.4267 45.0674 19.5161 43.9453 18.8038 42.71C17.1419 39.8314 16.3611 36.6912 16.3666 32.798Z" fill="#EF4423"/>
<path d="M21.3413 13.9867C21.8123 14.2863 22.2662 14.612 22.7009 14.9623C23.4613 15.6523 24.1198 16.4647 24.9266 17.0842C26.0005 17.9077 26.0506 19.1078 25.0082 19.9814C24.2015 20.6589 23.4492 21.3988 22.7583 22.1941C21.933 23.1438 20.6198 23.1456 19.9613 22.068C19.4303 21.1745 18.6908 20.4229 17.8061 19.8775C16.7655 19.2376 16.7841 17.9244 17.7059 17.1231C18.5146 16.422 19.2157 15.5985 20.0058 14.8714C20.3564 14.5487 20.809 14.3317 21.3413 13.9867ZM23.1219 18.4697L21.4006 16.8319L19.6979 18.4697L21.5694 20.2058L23.1219 18.4697Z" fill="#EF4423"/>
<path d="M35.56 14.2056C38.1557 14.1937 40.7255 14.7204 43.1072 15.7524C43.6061 15.9657 43.9715 16.3571 43.8083 16.8653C43.6989 17.2159 43.3038 17.5201 42.9662 17.7371C42.8104 17.8372 42.471 17.7241 42.2466 17.6313C37.8451 15.8303 33.4382 15.8155 29.0163 17.5534C28.3356 17.8205 27.7328 17.572 27.5325 16.997C27.3322 16.422 27.6104 15.899 28.2744 15.6319C30.5835 14.6752 33.0607 14.1902 35.56 14.2056Z" fill="#EF4423"/>
</g>
<defs>
<clipPath id="clip0_53_262">
<rect width="71.0867" height="60.5125" fill="white" transform="translate(0 0.487549)"/>
</clipPath>
</defs>
</svg>
