<svg width="74" height="73" viewBox="0 0 74 73" fill="none" xmlns="http://www.w3.org/2000/svg">
<g clip-path="url(#clip0_53_276)">
<path d="M36.132 72.9999C34.7483 71.7799 33.3633 70.5587 31.9771 69.3362C31.5277 68.942 31.2706 68.4965 31.5734 67.8985C31.9009 67.2511 32.6417 67.1197 33.2605 67.6262C33.9689 68.1975 34.6487 68.8202 35.4884 69.5495V63.2847C35.4884 63.0943 35.4884 62.9039 35.4884 62.7134C35.5379 62.0051 35.9092 61.6014 36.5186 61.5842C37.1622 61.5652 37.6021 61.9784 37.6116 62.7268C37.6363 64.5548 37.623 66.3828 37.6249 68.2089V69.5628C38.4113 68.8773 39.0454 68.3194 39.6872 67.7691C40.3289 67.2187 40.9287 67.1788 41.3819 67.6719C41.8351 68.1651 41.7627 68.7935 41.081 69.3857C39.7176 70.5955 38.351 71.8015 36.9813 73.0037L36.132 72.9999Z" fill="#EF4423"/>
<path d="M73.1209 36.9345C71.9441 38.2636 70.7667 39.5921 69.5886 40.9199C69.4248 41.1242 69.2324 41.3038 69.0173 41.4531C68.8173 41.5907 68.5727 41.6475 68.3325 41.6122C68.0924 41.5768 67.8744 41.452 67.7225 41.2627C67.625 41.1732 67.5466 41.0649 67.4919 40.9444C67.4373 40.8239 67.4076 40.6935 67.4045 40.5612C67.4015 40.4289 67.4253 40.2974 67.4743 40.1744C67.5234 40.0515 67.5968 39.9398 67.6901 39.846C68.2842 39.1376 68.9012 38.4483 69.6153 37.6276C69.2649 37.6066 69.0288 37.5819 68.7907 37.58H63.3695C63.1555 37.5867 62.9412 37.581 62.7278 37.5628C62.0404 37.4848 61.6538 37.0658 61.6805 36.4508C61.7072 35.8643 62.0956 35.4816 62.7621 35.453C63.4285 35.4244 64.1407 35.4435 64.83 35.4435H69.6705C68.9735 34.6418 68.3928 33.9868 67.8253 33.3203C67.3036 32.7072 67.2883 32.1264 67.7682 31.6846C68.248 31.2428 68.8783 31.3038 69.442 31.9302C70.6778 33.3089 71.8965 34.6875 73.1209 36.0795V36.9345Z" fill="#EF4423"/>
<path d="M0 36.0795C1.22376 34.6971 2.44689 33.314 3.66938 31.9303C4.06545 31.4809 4.51293 31.2277 5.10895 31.5285C5.75637 31.8561 5.88967 32.5987 5.38315 33.2137C4.79666 33.9259 4.17589 34.6095 3.44658 35.4493H4.3625C6.33524 35.4493 8.30798 35.4493 10.2807 35.4493C10.9986 35.4493 11.4061 35.8301 11.4347 36.4471C11.4632 37.085 11.0538 37.5039 10.3169 37.5667C10.1036 37.5858 9.88846 37.5781 9.67519 37.5781C7.91572 37.5781 6.15625 37.5781 4.39678 37.5781H3.46372C4.13971 38.3551 4.69764 38.9872 5.24604 39.6271C5.79445 40.2669 5.83825 40.8648 5.34697 41.3199C4.85569 41.775 4.2235 41.7007 3.62368 41.0209C2.41261 39.6588 1.20663 38.2948 0.00571815 36.9288L0 36.0795Z" fill="#EF4423"/>
<path d="M18.1108 27.1432V27.9696C18.1108 34.0992 18.1108 40.2288 18.0975 46.3584C18.0975 46.9677 18.305 47.2857 18.8192 47.577C21.6526 49.1785 24.4689 50.8142 27.2852 52.4461C27.567 52.6098 27.9593 52.8136 28.0202 53.0668C28.1116 53.4477 28.0907 53.9846 27.8793 54.295C27.5442 54.792 26.9729 54.7254 26.4683 54.4359C24.9449 53.56 23.4216 52.6765 21.8982 51.7986C20.4168 50.9437 18.941 50.0849 17.4462 49.2413C16.4351 48.67 15.9572 47.857 15.961 46.6897C15.9762 39.8955 15.9762 33.1039 15.961 26.3148C15.961 25.1457 16.4561 24.3497 17.4615 23.7728C23.3162 20.415 29.1633 17.044 35.0029 13.6596C36.0597 13.0445 37.0422 13.0103 38.0877 13.6406C39.2073 14.3146 40.3517 14.9449 41.4828 15.6019C42.2616 16.0551 42.4863 16.6339 42.1245 17.2281C41.7627 17.8222 41.1724 17.885 40.3784 17.4356C39.2644 16.7996 38.1619 16.1389 37.0327 15.5314C36.9073 15.4631 36.7688 15.422 36.6264 15.4108C36.484 15.3997 36.3409 15.4187 36.2063 15.4667C34.0698 16.6606 31.9562 17.8945 29.8368 19.1208C29.7835 19.1513 29.7473 19.216 29.6673 19.3112C29.8577 19.4388 30.031 19.5588 30.2081 19.6597C35.5855 22.7458 40.9579 25.8394 46.3252 28.9407C46.767 29.1959 47.0869 29.2302 47.5458 28.9598C49.6232 27.724 51.735 26.5319 53.9172 25.2694C53.5649 25.0467 53.2983 24.8658 53.0184 24.6982C50.2396 23.1063 47.4594 21.5087 44.6781 19.9053C44.5752 19.8444 44.4686 19.7892 44.3715 19.7149C43.8174 19.3341 43.6574 18.7514 43.9602 18.2373C44.2629 17.7231 44.8628 17.5556 45.4474 17.8812C46.7555 18.6105 48.0466 19.3684 49.3452 20.1148C51.4246 21.3125 53.4964 22.5274 55.5891 23.7023C56.6726 24.3097 57.1676 25.1685 57.1638 26.4253C57.1397 33.1534 57.1397 39.8771 57.1638 46.5964C57.1638 47.8189 56.684 48.6624 55.6272 49.2622C49.7711 52.6289 43.9234 56.0037 38.0838 59.3868C37.0575 59.9809 36.0863 60.0076 35.06 59.3868C33.5366 58.4709 31.9714 57.6045 30.4309 56.7095C29.694 56.2811 29.4788 55.7156 29.8044 55.131C30.13 54.5464 30.7375 54.434 31.4725 54.8511C32.5693 55.4699 33.6566 56.104 34.7515 56.7286C34.9419 56.8428 35.1552 56.9419 35.4884 57.1094V56.2373C35.4884 50.1083 35.4884 43.9794 35.4884 37.8504C35.4884 37.403 35.4523 37.0678 34.9819 36.7993C29.5131 33.6739 24.0544 30.5339 18.6059 27.3793C18.4878 27.3222 18.3602 27.2612 18.1108 27.1432ZM55.0102 27.1432C54.656 27.3336 54.4389 27.4269 54.2485 27.545C48.9168 30.6171 43.5851 33.6853 38.2533 36.7498C37.7658 37.0278 37.6249 37.3382 37.6268 37.8733C37.6446 43.9997 37.6484 50.1261 37.6383 56.2525V57.157C38.3333 56.761 38.8741 56.4296 39.4377 56.144C39.5992 56.0745 39.7337 55.9545 39.8213 55.8021C39.9088 55.6497 39.9446 55.473 39.9233 55.2985C39.9023 53.7752 39.9233 52.2518 39.9138 50.7399C39.9138 50.2105 40.0261 49.7554 40.5288 49.4698C41.3153 49.0242 42.0846 48.5501 42.8767 48.1197C42.9979 48.0438 43.1331 47.993 43.2744 47.9704C43.4156 47.9479 43.5599 47.954 43.6988 47.9885C43.8376 48.023 43.968 48.0851 44.0823 48.1711C44.1966 48.2571 44.2923 48.3653 44.3639 48.4892C44.6609 49.0033 44.5029 49.5974 43.9354 49.9592C43.4556 50.2658 42.9433 50.5304 42.4654 50.8313C42.3016 50.936 42.0846 51.1226 42.0846 51.2769C42.0503 52.3356 42.0655 53.3962 42.0655 54.4816C42.1619 54.4827 42.258 54.4705 42.3511 54.4455C44.8456 53.0148 47.3363 51.5797 49.8232 50.1401C49.899 50.0944 49.9642 50.033 50.0144 49.9601C50.0647 49.8872 50.0988 49.8045 50.1145 49.7174C50.1393 48.6586 50.1278 47.5999 50.1278 46.4155C49.2672 46.9049 48.5188 47.3504 47.7533 47.7579C47.1497 48.0798 46.5803 47.916 46.27 47.3771C46.1967 47.2602 46.148 47.1295 46.1271 46.9931C46.1061 46.8567 46.1132 46.7174 46.148 46.5839C46.1828 46.4503 46.2444 46.3253 46.3293 46.2164C46.4141 46.1076 46.5203 46.0172 46.6413 45.9509C47.9875 45.1473 49.3433 44.3571 50.722 43.6144C51.4113 43.2336 52.1444 43.6696 52.2453 44.4466C52.2726 44.7542 52.279 45.0634 52.2644 45.372C52.2644 46.4479 52.2644 47.5237 52.2644 48.7234C53.026 48.2835 53.6525 47.8893 54.3075 47.5713C54.8445 47.3086 55.0292 46.9582 55.0254 46.3507C55.0026 40.225 55.0121 34.0973 55.0121 27.9715L55.0102 27.1432ZM19.2114 25.2218C19.3847 25.3475 19.4552 25.4123 19.5332 25.4523C25.0668 28.6437 30.6035 31.8275 36.1435 35.0037C36.2829 35.0638 36.4338 35.0931 36.5856 35.0895C36.7375 35.0859 36.8868 35.0495 37.0232 34.9827C39.4244 33.6327 41.8046 32.2483 44.1887 30.8716C44.362 30.7707 44.5219 30.645 44.6838 30.5345C44.6419 30.4641 44.6343 30.4374 44.6171 30.4279C38.9921 27.1743 33.3583 23.9264 27.7155 20.6842C27.626 20.6428 27.5285 20.6214 27.4299 20.6214C27.3313 20.6214 27.2338 20.6428 27.1443 20.6842C24.5241 22.1637 21.9173 23.6699 19.2133 25.2276L19.2114 25.2218Z" fill="#EF4423"/>
<path d="M35.4883 3.45887C34.679 4.16152 34.043 4.72516 33.3937 5.27547C32.7443 5.82578 32.1426 5.8334 31.7047 5.31546C31.2667 4.79752 31.3581 4.23197 31.9579 3.6988C33.202 2.59183 34.4524 1.49502 35.7092 0.408357C36.3433 -0.140049 36.7793 -0.141954 37.4229 0.408357C38.6822 1.49628 39.932 2.5931 41.1723 3.6988C41.7702 4.23388 41.8464 4.82227 41.4217 5.31926C40.9971 5.81626 40.3706 5.82578 39.7308 5.27737C39.091 4.72897 38.4493 4.15961 37.6895 3.49695C37.6686 3.86446 37.6419 4.10629 37.6419 4.34813C37.6419 6.15076 37.6419 7.95466 37.6419 9.75984C37.6419 9.95026 37.6419 10.1407 37.6324 10.3311C37.5753 11.0318 37.1868 11.4279 36.5699 11.4298C35.9529 11.4317 35.5283 11.0318 35.513 10.333C35.4826 9.00006 35.4997 7.66713 35.4978 6.34562L35.4883 3.45887Z" fill="#EF4423"/>
<path d="M59.2204 60.6264C57.5638 58.9793 56.0442 57.4769 54.5437 55.9573C54.319 55.7307 54.0258 55.4032 54.0467 55.1443C54.0835 54.7392 54.2678 54.3617 54.5647 54.0836C55.0083 53.7199 55.5072 53.918 55.8976 54.3121C57.2445 55.6552 58.5908 56.9983 59.9364 58.3414C60.1516 58.5566 60.3382 58.8003 60.5381 59.0307L60.7285 58.9488C60.8009 58.0177 60.8656 57.0865 60.9437 56.1554C60.9894 55.5841 61.2845 55.2261 61.8672 55.1519C62.5661 55.0643 63.1031 55.5613 63.0612 56.3172C62.964 58.0729 62.8346 59.8248 62.707 61.5785C62.6613 62.2202 62.2919 62.5668 61.6521 62.6125C59.9192 62.7344 58.1883 62.8581 56.4536 62.9629C55.7662 63.0048 55.3016 62.6277 55.2368 62.0317C55.1645 61.3805 55.5377 60.9235 56.2651 60.8492C57.1886 60.7578 58.1122 60.7083 59.2204 60.6264Z" fill="#EF4423"/>
<path d="M13.8701 12.3876C15.5534 14.0519 17.0806 15.5466 18.5792 17.07C18.8286 17.3213 19.099 17.7174 19.0781 18.0221C19.0086 18.4049 18.7901 18.7445 18.4706 18.9666C18.0194 19.2846 17.5643 19.0542 17.1967 18.6886L13.0075 14.4993C12.8419 14.3356 12.6667 14.1813 12.3944 13.9281C12.3163 14.9811 12.2516 15.918 12.1735 16.8529C12.1259 17.4242 11.825 17.7803 11.2442 17.8507C10.5454 17.9364 10.0141 17.4394 10.056 16.6796C10.1531 14.9259 10.2826 13.1721 10.4102 11.4203C10.4578 10.7766 10.8291 10.4358 11.4689 10.392C13.2017 10.272 14.9346 10.1464 16.6674 10.0435C17.3567 10.0016 17.8194 10.3844 17.8822 10.9785C17.9489 11.6278 17.5738 12.081 16.8426 12.1553C15.9247 12.2543 15.0031 12.3038 13.8701 12.3876Z" fill="#EF4423"/>
<path d="M59.1708 12.3857C58.1158 12.3076 57.1771 12.241 56.2402 12.1629C55.669 12.1153 55.311 11.8144 55.2405 11.2337C55.1548 10.5348 55.6518 10.0093 56.4154 10.0512C58.1749 10.1483 59.9305 10.2778 61.6862 10.4053C62.3298 10.451 62.6707 10.8262 62.7145 11.4641C62.8344 13.1931 62.962 14.9221 63.0648 16.653C63.1067 17.3385 62.7202 17.7955 62.1242 17.8622C61.4729 17.9288 61.0197 17.5537 60.9474 16.8244C60.856 15.9066 60.8065 14.9849 60.7398 14.0671L60.5151 13.9072C60.2028 14.288 59.9172 14.6898 59.5745 15.0382C58.4072 16.2265 57.2228 17.3975 56.0403 18.5686C55.3986 19.2046 54.7892 19.2675 54.3037 18.759C53.8181 18.2506 53.9019 17.6908 54.5131 17.0776C55.8727 15.7123 57.238 14.3565 58.5995 12.9931C58.7652 12.8313 58.9194 12.6561 59.1708 12.3857Z" fill="#EF4423"/>
<path d="M12.3925 59.1278L16.6484 54.8719C16.8388 54.6815 17.014 54.4911 17.2063 54.3197C17.7528 53.8132 18.3336 53.7808 18.7906 54.2245C19.2476 54.6682 19.2362 55.2699 18.7316 55.8031C18.2269 56.3363 17.6614 56.8847 17.1225 57.4216C16.0962 58.4423 15.0679 59.461 13.9159 60.6035C14.3538 60.6531 14.6395 60.6949 14.9289 60.7159C15.5935 60.7673 16.2618 60.7844 16.9207 60.8587C17.5795 60.933 17.9261 61.3652 17.8861 61.9612C17.8461 62.5572 17.4596 62.9762 16.8769 62.9514C14.9993 62.8714 13.1218 62.761 11.2538 62.5515C10.9453 62.5173 10.4921 61.9803 10.4483 61.6451C10.2579 59.8761 10.157 58.0957 10.0542 56.3134C10.0161 55.6393 10.435 55.1709 11.0367 55.1423C11.6385 55.1138 12.0993 55.4603 12.1697 56.1554C12.263 57.077 12.3106 57.9986 12.3925 59.1278Z" fill="#EF4423"/>
<path d="M29.8502 48.2759C29.8406 49.3593 29.0009 49.8259 28.2011 49.3974C27.249 48.8928 26.3445 48.3387 25.4191 47.8055C24.4937 47.2724 23.5644 46.7449 22.6447 46.2022C21.9725 45.8042 21.7859 45.2158 22.1287 44.6522C22.4486 44.1266 23.0465 43.9838 23.6882 44.3475C25.5276 45.3872 27.3633 46.4421 29.1761 47.5199C29.5036 47.716 29.7054 48.114 29.8502 48.2759Z" fill="#EF4423"/>
</g>
<defs>
<clipPath id="clip0_53_276">
<rect width="73.1209" height="73.0048" fill="white" transform="translate(0 -0.00488281)"/>
</clipPath>
</defs>
</svg>
