<svg width="64" height="64" viewBox="0 0 64 64" fill="none" xmlns="http://www.w3.org/2000/svg">
<g clip-path="url(#clip0_43_87)">
<path d="M35.9665 36.2405C35.9804 36.0428 35.9925 35.9353 35.9943 35.8278C35.9839 35.5542 36.058 35.2841 36.2066 35.0542C36.3553 34.8243 36.5711 34.6457 36.8249 34.5429C37.3537 34.3071 37.8427 34.4631 38.2623 34.8412C39.2779 35.7977 40.5381 36.4548 41.9037 36.7399C44.3573 37.2254 46.5439 36.6844 48.4253 35.0163C49.2923 34.2481 49.8125 34.2308 50.6795 34.9833C53.6533 37.5843 57.5079 37.5843 60.4575 34.9643C61.0158 34.4701 61.621 34.2793 62.3076 34.5637C62.9943 34.8481 63.1625 35.4203 63.2024 36.0948C63.7052 44.4683 61.4042 51.9748 56.1693 58.5379C54.605 60.5521 52.5491 62.1302 50.1992 63.1209C49.8059 63.2658 49.3754 63.2743 48.9767 63.1451C47.3329 62.5799 45.9474 61.5846 44.6816 60.4089C44.555 60.291 44.4302 60.1696 44.2984 60.0621C44.2741 60.0413 44.2203 60.0621 44.1007 60.0465C44.1007 60.7991 44.1007 61.5481 44.1007 62.3007C44.1007 63.6185 43.7105 64.0069 42.3944 64.0069H7.54809C5.53146 64.0069 3.51656 64.0156 1.50165 64.0069C0.528884 64.0069 0.0260236 63.537 0.0260236 62.5816C0.0260236 59.1587 -0.0814738 55.7271 0.123137 52.3146C0.643336 43.8302 6.93773 36.5942 15.2384 34.8013C16.3984 34.5341 17.5823 34.3842 18.7722 34.3539C22.216 34.3123 25.6631 34.2984 29.1051 34.4146C31.3021 34.4874 33.4089 35.1238 35.4169 36.0411C35.5781 36.0983 35.7307 36.1555 35.9665 36.2405ZM41.4529 61.2794C41.4529 59.7656 41.4633 58.3177 41.4407 56.8698C41.4097 56.6584 41.3229 56.4591 41.1893 56.2924C37.9136 51.3875 36.0262 45.6875 35.7272 39.7969C35.7086 39.6697 35.6635 39.5477 35.5948 39.439C35.5261 39.3303 35.4354 39.2372 35.3284 39.1657C33.0049 37.7929 30.3659 37.0439 27.6676 36.9913C25.3718 36.9404 23.0749 36.937 20.7767 36.9809C19.3712 36.9733 17.9668 37.0625 16.5735 37.2479C9.0324 38.4305 2.93047 45.3838 2.72239 53.0117C2.65824 55.4167 2.70505 57.8218 2.70159 60.2286V61.2794H41.4529ZM49.4293 37.6589C45.8711 40.1593 42.1465 40.383 38.2433 38.4756C38.2433 38.7496 38.2433 38.9212 38.2433 39.0929C38.5207 44.7215 40.09 49.946 43.1643 54.6867C44.6192 56.9288 46.419 58.8344 48.7599 60.1956C49.2559 60.4835 49.6356 60.4575 50.1159 60.18C52.1447 59.0113 53.7573 57.4056 55.0994 55.4982C58.0645 51.3089 59.6841 46.6063 60.3101 41.543C60.4367 40.5026 60.4436 39.4623 60.5129 38.3143C56.5993 40.2807 52.9597 40.109 49.4345 37.6589H49.4293Z" fill="white"/>
<path d="M37.5027 13.9968C37.0311 20.0779 34.5775 25.2989 29.4743 29.0548C25.6596 31.8673 21.4113 31.8066 17.6104 28.9629C13.3638 25.7862 10.9657 21.4321 10.1108 16.2544C9.24383 11.0212 10.853 6.57181 14.966 3.22173C19.0461 -0.10234 23.7314 -0.875703 28.6472 1.00048C33.5024 2.85238 36.334 6.52152 37.2791 11.6264C37.4108 12.3477 37.4195 13.0934 37.5027 13.9968ZM34.6867 13.9968C34.6278 13.2928 34.6208 12.6824 34.5133 12.0894C33.4296 5.83486 27.9675 1.92643 21.6818 2.8992C16.8127 3.64829 12.7881 8.01275 12.6008 12.939C12.3962 18.2849 14.4406 22.7604 18.3993 26.2908C21.6644 29.1987 25.5087 29.1658 28.8033 26.2908C32.5366 23.0257 34.3365 18.8051 34.6867 14.002V13.9968Z" fill="white"/>
<path d="M48.2814 48.6767C49.4518 47.4872 50.4159 46.4589 51.4442 45.5C51.7442 45.2191 52.2574 44.9538 52.6233 45.0076C53.0169 45.0666 53.4365 45.4498 53.6932 45.8018C54.0036 46.2266 53.8527 46.7485 53.4972 47.1127C52.0719 48.5681 50.6315 50.0067 49.1761 51.4286C48.9509 51.6403 48.6517 51.7556 48.3426 51.7497C48.0335 51.7439 47.739 51.6174 47.5219 51.3974C46.7971 50.7159 46.0896 50.0102 45.4081 49.2854C45.2884 49.166 45.1943 49.0235 45.1313 48.8666C45.0684 48.7097 45.0381 48.5416 45.0421 48.3726C45.0462 48.2036 45.0845 48.0372 45.1549 47.8835C45.2253 47.7298 45.3262 47.592 45.4515 47.4785C45.5666 47.3552 45.7056 47.2565 45.86 47.1884C46.0143 47.1203 46.1809 47.0842 46.3496 47.0822C46.5183 47.0803 46.6856 47.1126 46.8415 47.1771C46.9974 47.2416 47.1386 47.3371 47.2566 47.4577C47.6155 47.7924 47.8895 48.212 48.2814 48.6767Z" fill="white"/>
</g>
<defs>
<clipPath id="clip0_43_87">
<rect width="63.2665" height="64" fill="white"/>
</clipPath>
</defs>
</svg>
