<svg width="62" height="66" viewBox="0 0 62 66" fill="none" xmlns="http://www.w3.org/2000/svg">
<g clip-path="url(#clip0_53_250)">
<path d="M46.5657 43.778L41.8083 48.53C40.7827 47.8362 39.7127 47.137 38.6711 46.4006C38.541 46.2875 38.3779 46.2191 38.206 46.2057C38.0341 46.1923 37.8625 46.2345 37.7164 46.3261C37.064 46.6541 36.3899 46.9369 35.6988 47.1725C35.3173 47.3021 35.131 47.4706 35.0618 47.8823C34.8471 49.1422 34.5827 50.395 34.3325 51.6832C32.1925 51.6832 30.111 51.6939 28.0278 51.6619C27.8645 51.6619 27.6019 51.3851 27.5611 51.1988C27.3056 50.056 27.1193 48.892 26.8655 47.7546C26.8284 47.6396 26.7686 47.5333 26.6897 47.4418C26.6107 47.3504 26.5142 47.2757 26.4059 47.2222C25.7653 46.9223 25.0662 46.7396 24.454 46.4024C23.9465 46.1256 23.5987 46.1859 23.1515 46.5124C22.188 47.2222 21.1801 47.8628 20.2396 48.4981L15.4557 43.7336C16.1193 42.7541 16.822 41.6894 17.5584 40.6478C17.6725 40.5186 17.7416 40.3559 17.7553 40.1841C17.7691 40.0123 17.7268 39.8406 17.6347 39.6949C17.3069 39.0196 17.0172 38.3265 16.767 37.6188C16.6481 37.2976 16.5097 37.1237 16.1388 37.0634C15.0245 36.8859 13.9225 36.634 12.8082 36.4441C12.4053 36.3767 12.2563 36.224 12.2616 35.7999C12.2841 33.919 12.2841 32.0375 12.2616 30.1554C12.2616 29.7242 12.4249 29.5911 12.8223 29.5236C13.9349 29.3462 15.0387 29.0854 16.1513 28.9044C16.5239 28.844 16.6641 28.6737 16.7741 28.3436C16.9782 27.7385 17.1645 27.1015 17.4981 26.5692C17.8725 25.9694 17.743 25.5524 17.3632 25.0396C16.68 24.1151 16.0625 23.1444 15.4468 22.2359L20.2112 17.4679C21.2156 18.1457 22.2838 18.8467 23.329 19.5831C23.4593 19.6969 23.6231 19.7652 23.7956 19.7777C23.9682 19.7902 24.1401 19.7461 24.2854 19.6523C24.8684 19.3352 25.4827 19.0795 26.1185 18.8892C26.6827 18.7349 26.8815 18.4243 26.9649 17.8902C27.1228 16.8628 27.3606 15.8496 27.5274 14.8239C27.5877 14.4406 27.7332 14.304 28.1254 14.3076C30.0335 14.3229 31.9405 14.3229 33.8463 14.3076C34.2438 14.3076 34.3875 14.4513 34.4514 14.8222C34.6466 15.9312 34.8861 17.0349 35.0724 18.1457C35.082 18.2953 35.1386 18.438 35.2343 18.5534C35.3299 18.6688 35.4596 18.7509 35.6048 18.7881C36.3347 19.0436 37.0497 19.3399 37.7466 19.6753C38.1015 19.8528 38.341 19.796 38.6444 19.5848C39.6932 18.852 40.7632 18.1457 41.7746 17.4643L46.5444 22.2164C45.8577 23.2562 45.1497 24.3209 44.4115 25.3643C44.3054 25.4869 44.2415 25.6402 44.229 25.8018C44.2166 25.9634 44.2562 26.1248 44.3423 26.2622C44.6706 26.9141 44.9557 27.5869 45.1958 28.2762C45.3253 28.6559 45.4815 28.8511 45.9056 28.9168C47.0004 29.0942 48.0811 29.3373 49.1724 29.5219C49.5681 29.5893 49.7384 29.7224 49.7331 30.1536C49.7118 32.0345 49.7118 33.9161 49.7331 35.7982C49.7331 36.2187 49.5965 36.3749 49.1883 36.4441C48.0758 36.6322 46.9738 36.8842 45.8594 37.0651C45.4904 37.1255 45.3519 37.2941 45.2313 37.6206C44.9669 38.3463 44.6138 39.0401 44.3618 39.7677C44.3194 39.9014 44.3038 40.0422 44.316 40.182C44.3282 40.3218 44.3679 40.4578 44.4328 40.5821C45.1088 41.6646 45.8452 42.7151 46.5657 43.778ZM43.8933 43.5189C43.2776 42.6086 42.6636 41.6646 42.0071 40.7507C41.7533 40.3958 41.7657 40.158 41.9556 39.7552C42.5359 38.5238 43.0664 37.2603 43.5242 35.9774C43.691 35.5089 43.9004 35.3155 44.3653 35.2392C45.4531 35.0618 46.532 34.8329 47.6392 34.6217C47.6392 33.6067 47.657 32.6556 47.6197 31.708C47.5932 31.6074 47.5422 31.5149 47.4713 31.4388C47.4004 31.3626 47.3118 31.3052 47.2134 31.2715C46.2197 31.0497 45.2171 30.8705 44.2145 30.6912C43.8596 30.6274 43.6946 30.4606 43.558 30.0915C43.0658 28.7736 42.5252 27.4724 41.9361 26.1876C41.7586 25.8115 41.7586 25.5825 41.9911 25.2507C42.6565 24.3227 43.2811 23.3662 43.8472 22.5305L41.4783 20.1669C40.591 20.772 39.6275 21.409 38.687 22.0709C38.3925 22.2785 38.1884 22.2483 37.8619 22.1028C36.5577 21.5155 35.2357 20.9583 33.8942 20.4614C33.4949 20.3141 33.3388 20.1261 33.2731 19.7516C33.1045 18.7704 32.9182 17.7997 32.7124 16.8202C32.6769 16.657 32.4782 16.4103 32.3468 16.405C31.3567 16.3713 30.3648 16.3872 29.348 16.3872C29.1262 17.5619 28.9186 18.6674 28.7056 19.7712C28.6488 20.0675 28.5938 20.3035 28.2035 20.4348C26.6845 20.9672 25.1869 21.5598 23.526 22.1951L20.465 20.1314L18.1227 22.4754L20.1917 25.5329C19.5689 27.1459 18.978 28.5903 18.4652 30.0631C18.4243 30.2396 18.3284 30.3985 18.1912 30.5169C18.054 30.6352 17.8827 30.7069 17.7021 30.7214C16.7422 30.8847 15.791 31.0976 14.8275 31.2538C14.4602 31.3105 14.3502 31.4543 14.359 31.8109C14.3803 32.6059 14.3839 33.408 14.359 34.1994C14.3466 34.5738 14.4992 34.6838 14.847 34.7317C15.8301 34.8896 16.7989 35.0973 17.7873 35.2641C18.1422 35.3279 18.3108 35.4894 18.4492 35.8603C18.9478 37.1982 19.4997 38.522 20.0924 39.8209C20.2538 40.1758 20.2592 40.3941 20.0409 40.7081C19.3772 41.6433 18.7438 42.5997 18.1316 43.5029L20.4863 45.8523C21.3966 45.2348 22.3583 44.6102 23.2953 43.9359C23.6147 43.707 23.8276 43.7478 24.1825 43.9057C25.4459 44.4807 26.7253 45.0236 28.0242 45.5028C28.4235 45.6518 28.6524 45.7902 28.7216 46.2267C28.8778 47.2098 29.0623 48.1875 29.2859 49.1564C29.3281 49.2607 29.3951 49.3531 29.481 49.4258C29.567 49.4984 29.6693 49.5491 29.7792 49.5734C30.5529 49.6195 31.3301 49.5734 32.1055 49.6018C32.5154 49.616 32.6875 49.4971 32.7532 49.0694C32.8969 48.1095 33.1081 47.1583 33.2855 46.2019C33.3008 46.0432 33.3653 45.8932 33.4699 45.773C33.5746 45.6527 33.7143 45.5681 33.8693 45.5311C35.2321 45.0307 36.5559 44.4221 37.9098 43.888C38.0297 43.8419 38.1577 43.8206 38.2861 43.8251C38.4144 43.8297 38.5405 43.8601 38.6569 43.9146C39.647 44.5392 40.6088 45.2153 41.5315 45.8452L43.8933 43.5189Z" fill="#EF4423"/>
<path d="M4.43448 31.1171L6.46803 31.2839C6.11313 41.0879 9.88743 48.8068 18.1884 54.1426C23.3911 57.4857 29.7952 58.3233 34.4 57.4751C34.3166 56.98 34.242 56.4814 34.1515 55.9845C33.9847 55.0796 34.5331 54.4869 35.4505 54.6288C35.8632 54.7084 36.2704 54.8145 36.6695 54.9465C39.6471 55.8112 42.6229 56.6772 45.5969 57.5443C45.778 57.5948 45.9426 57.6925 46.0737 57.8272C46.2049 57.962 46.2981 58.1291 46.3437 58.3116C46.3893 58.4941 46.3858 58.6853 46.3334 58.866C46.2811 59.0466 46.1819 59.2102 46.0458 59.3401C45.8506 59.52 45.6424 59.6855 45.423 59.8351C42.8204 61.7906 40.2179 63.7425 37.6153 65.6909C36.8949 66.2321 36.0289 65.9162 35.8089 65.0272C35.7237 64.6865 35.6723 64.337 35.6013 63.9714C22.9883 65.2029 12.7514 60.9992 5.38028 50.599C1.28657 44.8249 -0.329967 38.2664 0.0657396 31.1029L2.11347 31.252C1.73019 40.8004 4.93666 48.8636 12.1783 55.1026C19.4199 61.3417 27.8717 63.2279 37.2462 61.5085C37.3048 61.8012 37.3562 62.0568 37.4077 62.3105C37.4592 62.5643 37.5071 62.7861 37.5851 63.1339L43.1499 58.955L36.4601 57.0226C36.5879 57.7821 36.7032 58.4688 36.8328 59.2318C27.9231 60.8998 19.9753 59.0153 13.2323 52.9733C6.77678 47.1903 3.99619 39.8138 4.43448 31.1171Z" fill="#EF4423"/>
<path d="M57.5124 34.8453L55.5375 34.698C55.7522 25.8753 52.4854 18.7011 45.3875 13.4274C40.4811 9.78263 34.8915 8.35064 28.7447 8.82797C28.798 9.29111 28.8405 9.70101 28.8885 10.1109C29.0073 11.1064 28.3242 11.6849 27.3553 11.353C25.3182 10.6752 23.2918 9.96718 21.2618 9.26981C20.0268 8.84631 18.7923 8.42043 17.5585 7.99219C17.3884 7.93072 17.2365 7.8274 17.1168 7.69176C16.9971 7.55612 16.9136 7.39254 16.8738 7.21609C16.834 7.03964 16.8393 6.85602 16.8892 6.68215C16.9391 6.50829 17.0319 6.34979 17.1592 6.22127C17.337 6.0556 17.5315 5.90872 17.7395 5.78298L25.9393 0.234209C26.6615 -0.25377 27.5008 0.0851531 27.6836 0.952869C27.7812 1.42488 27.8309 1.90753 27.9036 2.39374C39.931 1.71767 49.6054 6.02963 56.6004 15.862C61.1767 22.2997 62.4082 29.93 61.8865 35.3581L59.9133 35.2232C60.309 25.98 57.2693 18.0712 50.3808 11.8446C43.4924 5.61795 35.3156 3.45132 26.1416 4.72539C26.0812 4.3705 26.028 4.07061 25.9819 3.76895C25.9357 3.46729 25.8967 3.17451 25.8435 2.78767L20.0747 6.69151L26.6402 8.95928L26.4628 7.14932C42.6654 3.95882 58.7155 17.5193 57.5124 34.8453Z" fill="#EF4423"/>
<path d="M4.95252 16.366L6.68972 17.4999L4.6686 21.1588L2.78589 20.2929L4.95252 16.366Z" fill="#EF4423"/>
<path d="M2.46646 28.1324L0.438232 27.7775C0.803773 26.3331 1.15689 24.9384 1.53131 23.4496L3.49565 24.0848L2.46646 28.1324Z" fill="#EF4423"/>
<path d="M59.6134 37.9293L61.6433 38.2594C61.3612 39.5192 61.095 40.7135 60.8093 41.9858L58.8308 41.4215C59.0917 40.2574 59.3454 39.1271 59.6134 37.9293Z" fill="#EF4423"/>
<path d="M58.2221 48.1946L56.4104 47.1973L57.9382 43.9642L59.8529 44.7273L58.2221 48.1946Z" fill="#EF4423"/>
<path d="M5.7209 24.7787L7.67282 25.4264C7.38358 26.5425 7.10854 27.6036 6.81753 28.7216L4.78931 28.3418C5.11049 27.1263 5.4086 25.9836 5.7209 24.7787Z" fill="#EF4423"/>
<path d="M10.2724 20.0266L8.64164 23.029L6.7749 22.1684L8.54937 18.9211L10.2724 20.0266Z" fill="#EF4423"/>
<path d="M56.6341 40.5431L54.668 39.9948L55.2376 37.4094L57.2676 37.7377C57.0493 38.6941 56.8488 39.5938 56.6341 40.5431Z" fill="#EF4423"/>
<path d="M55.6917 43.29L54.4495 45.9002L52.6484 44.9332C53.0229 44.1311 53.3831 43.3627 53.7735 42.5305L55.6917 43.29Z" fill="#EF4423"/>
<path d="M11.589 15.0688C12.1214 15.5799 12.5881 16.0164 13.0796 16.4884L11.7878 17.9808L10.1819 16.6907L11.589 15.0688Z" fill="#EF4423"/>
<path d="M8.58311 14.9766L6.98608 13.6705L8.37372 12.0824L9.88734 13.4736L8.58311 14.9766Z" fill="#EF4423"/>
<path d="M56.6766 50.6309C56.2507 51.213 55.8639 51.74 55.4185 52.3451L53.8037 51.0923L54.9731 49.4775L56.6766 50.6309Z" fill="#EF4423"/>
<path d="M52.9183 48.3402L51.9672 49.6231L50.3489 48.381L51.2219 47.1903L52.9183 48.3402Z" fill="#EF4423"/>
<path d="M31 40.1599C29.0958 40.1589 27.2698 39.4023 25.9231 38.0562C24.5763 36.7101 23.8188 34.8845 23.8169 32.9804C23.8286 31.076 24.5941 29.2537 25.9459 27.9123C27.2977 26.5708 29.1257 25.8193 31.0301 25.8222C32.9233 25.8347 34.7354 26.5923 36.0741 27.9311C37.4128 29.2698 38.1705 31.0819 38.183 32.975C38.183 34.8803 37.4263 36.7075 36.0793 38.0549C34.7322 39.4022 32.9052 40.1594 31 40.1599ZM31.0905 27.8876C30.4198 27.8714 29.7525 27.9882 29.1272 28.2314C28.502 28.4746 27.9311 28.8393 27.4476 29.3045C26.9642 29.7696 26.5777 30.326 26.3106 30.9414C26.0434 31.5568 25.9009 32.219 25.8913 32.8899C25.8774 33.5605 25.9963 34.2272 26.2411 34.8517C26.4858 35.4762 26.8517 36.0462 27.3176 36.5287C27.7835 37.0113 28.3402 37.3969 28.9558 37.6635C29.5713 37.9301 30.2334 38.0723 30.9041 38.082C31.575 38.0973 32.2422 37.9797 32.8674 37.7359C33.4925 37.4922 34.0633 37.1272 34.5468 36.6618C35.0302 36.1965 35.4168 35.6401 35.6843 35.0247C35.9517 34.4094 36.0947 33.7471 36.1051 33.0762C36.1192 32.4057 36.0005 31.739 35.7557 31.1146C35.511 30.4902 35.1451 29.9204 34.6791 29.4381C34.2131 28.9558 33.6562 28.5705 33.0406 28.3043C32.425 28.0382 31.7628 27.8966 31.0922 27.8876H31.0905Z" fill="#EF4423"/>
</g>
<defs>
<clipPath id="clip0_53_250">
<rect width="62" height="65.9624" fill="white"/>
</clipPath>
</defs>
</svg>
