<svg width="85" height="85" viewBox="0 0 85 85" fill="none" xmlns="http://www.w3.org/2000/svg">
<g clip-path="url(#clip0_77_9)">
<path d="M0 30.2205C0.0656792 30.1064 0.1199 29.9861 0.161879 29.8613C0.379397 28.8299 0.813527 27.8565 1.43553 27.0056C2.05753 26.1546 2.85322 25.4454 3.76989 24.9251C6.12275 23.5258 8.48891 22.151 10.8196 20.7118C11.2264 20.4566 11.538 20.0748 11.7066 19.6252C12.6047 16.8976 13.443 14.1501 14.2946 11.407C15.379 7.91444 18.4836 5.81001 22.147 6.08498C25.0986 6.30673 28.0502 6.52848 30.9974 6.7835C31.2936 6.8231 31.5949 6.79433 31.8782 6.69938C32.1615 6.60443 32.4193 6.44584 32.6318 6.23577C34.1841 4.81877 35.7785 3.44834 37.353 2.05351C40.4576 -0.68513 44.4914 -0.707305 47.5916 2.00916C49.1927 3.41286 50.8026 4.8099 52.3727 6.24908C52.5868 6.45733 52.846 6.61346 53.1302 6.70537C53.4144 6.79728 53.716 6.8225 54.0115 6.77906C56.932 6.52627 59.857 6.31339 62.7798 6.08942C66.6495 5.79448 69.7852 7.98983 70.7631 11.7419C71.3929 14.1457 71.9695 16.565 72.5172 18.991C72.5707 19.2694 72.6867 19.532 72.8565 19.7591C73.0263 19.9861 73.2454 20.1716 73.4974 20.3015C76.0631 21.8095 78.5956 23.3396 81.1281 24.8608C84.6762 26.9985 85.8937 30.6751 84.3281 34.5225C83.3279 36.9796 82.2923 39.4211 81.3144 41.8847C81.1814 42.2568 81.1814 42.6635 81.3144 43.0356C82.2679 45.4483 83.2769 47.841 84.2638 50.2426C85.927 54.2807 84.7339 57.9063 80.9995 60.1505C78.4581 61.6717 75.9101 63.1796 73.402 64.7363C73.0245 64.9781 72.7436 65.3446 72.6081 65.7719C71.9983 68.0959 71.4594 70.4287 70.9006 72.7749C69.9426 76.7664 66.9954 79.0527 62.8796 78.8398C59.8415 78.6846 56.8123 78.3785 53.7742 78.1745C53.3782 78.17 52.9928 78.3024 52.6832 78.5493C51.4058 79.6093 50.1462 80.6937 48.9332 81.8246C47.3587 83.297 45.6978 84.5898 43.5068 84.9912H41.511C39.3222 84.5876 37.6612 83.2992 36.0868 81.829C34.8759 80.6981 33.6186 79.6115 32.3368 78.5604C32.0033 78.3017 31.59 78.1676 31.1681 78.1812C28.1611 78.3719 25.1607 78.669 22.1537 78.8331C18.0489 79.0549 15.0729 76.7819 14.1194 72.7993C13.5583 70.4642 13.0216 68.1225 12.4118 65.8007C12.2751 65.3479 11.986 64.9562 11.5935 64.692C9.00783 63.0976 6.38442 61.5653 3.77876 60.0063C1.82728 58.8377 0.581008 57.1613 0.139709 54.906C0.105785 54.804 0.0596197 54.7065 0.00221975 54.6155V52.4645C0.310464 51.5775 0.585445 50.6905 0.931388 49.8368C1.84725 47.5638 2.80747 45.3108 3.70559 43.0312C3.83646 42.6602 3.83646 42.2557 3.70559 41.8847C2.48592 38.7624 1.23741 35.6557 0 32.5445V30.2205ZM62.9971 73.8681C64.7712 73.9346 65.6471 73.2805 66.0508 71.6306C66.716 68.8942 67.4079 66.16 68.02 63.4125C68.1204 62.913 68.3304 62.4421 68.6349 62.0337C68.9394 61.6253 69.3307 61.2896 69.7807 61.0508C72.6436 59.3766 75.4777 57.6513 78.3229 55.9505C80.0548 54.9127 80.3896 53.9126 79.629 52.072C78.5202 49.391 77.4491 46.6968 76.3026 44.0379C76.07 43.5396 75.9509 42.9959 75.954 42.446C75.9571 41.8961 76.0822 41.3537 76.3204 40.858C77.4558 38.2502 78.5025 35.6025 79.5847 32.9725C80.4118 30.959 80.1124 30.0431 78.2275 28.9122C75.3602 27.1914 72.4928 25.4662 69.6122 23.7675C69.2143 23.5462 68.8694 23.2409 68.6013 22.873C68.3333 22.505 68.1485 22.083 68.0599 21.6365C67.4212 18.8646 66.7293 16.0927 66.0641 13.3363C65.676 11.7375 64.7335 10.9458 63.2854 11.05C59.7794 11.305 56.2756 11.5601 52.7763 11.8594C52.3244 11.9128 51.8663 11.8661 51.4344 11.7228C51.0025 11.5795 50.6074 11.343 50.2771 11.0301C48.3633 9.31148 46.4251 7.61729 44.4958 5.91423C43.0987 4.67685 41.9367 4.6702 40.5352 5.91423C38.5838 7.63207 36.6352 9.35361 34.6897 11.0788C34.4039 11.3612 34.0614 11.5796 33.6848 11.7195C33.3082 11.8595 32.9062 11.9177 32.5054 11.8905C29.0304 11.6221 25.5554 11.3627 22.0827 11.0922C20.353 10.9591 19.4992 11.5179 18.9781 13.1589C18.0267 16.188 17.0577 19.2127 16.1396 22.2507C16.0165 22.7031 15.8042 23.1262 15.5151 23.4952C15.2261 23.8642 14.8661 24.1717 14.4564 24.3995C11.8552 25.9163 9.27172 27.4708 6.67936 29.0053C4.96073 30.021 4.61922 31.0211 5.38651 32.8838C6.4953 35.5892 7.60409 38.3012 8.75724 40.9933C8.97138 41.4558 9.0823 41.9594 9.0823 42.469C9.0823 42.9787 8.97138 43.4823 8.75724 43.9448C7.60409 46.6369 6.50861 49.3511 5.39317 52.0587C4.61036 53.9525 4.94965 54.9238 6.72372 55.9838C9.55335 57.6646 12.3675 59.3677 15.2082 61.0242C15.6573 61.2655 16.0474 61.6032 16.3507 62.0131C16.6539 62.4229 16.8628 62.8947 16.9623 63.3947C17.5566 66.0358 18.2263 68.6591 18.8694 71.2891C19.4017 73.4712 20.1534 74.0278 22.3843 73.857C25.5554 73.6131 28.7288 73.3714 31.8955 73.0875C32.4018 73.0208 32.9165 73.0672 33.4028 73.2232C33.889 73.3793 34.3345 73.6412 34.7074 73.9901C36.6345 75.7353 38.6037 77.4361 40.5618 79.1458C41.9035 80.3167 43.0788 80.3233 44.3983 79.1702C46.3165 77.4938 48.2546 75.8439 50.1241 74.1187C51.0577 73.2561 52.0556 72.9833 53.3019 73.1031C56.5617 73.4069 59.8193 73.6242 62.9971 73.8681Z" fill="black"/>
<path d="M15.1128 42.4834C15.1239 27.3887 27.4426 15.097 42.5399 15.1192C57.6372 15.1413 69.9359 27.4797 69.8916 42.5633C69.8472 57.6469 57.513 69.932 42.4201 69.8876C27.3273 69.8433 15.0995 57.5427 15.1128 42.4834ZM20.0913 42.4457C20.0624 54.773 30.0926 64.8694 42.4024 64.9093C54.7787 64.947 64.8798 54.9171 64.9131 42.5588C64.9441 30.236 54.9073 20.1352 42.5975 20.0997C30.2168 20.0643 20.1201 30.0875 20.0913 42.4457Z" fill="black"/>
<path d="M40.0362 46.4329L50.2593 36.2012C51.1995 35.261 52.1287 34.3141 53.0801 33.3871C54.1888 32.305 55.7079 32.2784 56.7125 33.2829C57.717 34.2875 57.6949 35.8043 56.5861 36.9152C51.7074 41.816 46.8161 46.7071 41.9123 51.5886C40.7192 52.7772 39.2978 52.7683 38.1025 51.5886C34.8648 48.3717 31.6368 45.1437 28.4183 41.9047C27.3095 40.7959 27.2807 39.288 28.2852 38.2746C29.2898 37.2612 30.8089 37.2789 31.9154 38.3721C34.3947 40.8225 36.8518 43.2973 39.3199 45.7587C39.5306 45.9605 39.7524 46.1623 40.0362 46.4329Z" fill="black"/>
</g>
<defs>
<clipPath id="clip0_77_9">
<rect width="85" height="85" fill="white"/>
</clipPath>
</defs>
</svg>
