<svg width="73" height="67" viewBox="0 0 73 67" fill="none" xmlns="http://www.w3.org/2000/svg">
<g clip-path="url(#clip0_53_232)">
<path d="M62.3199 31.8612V19.809H55.5375C55.5375 20.5663 55.5375 21.3217 55.5375 22.077C55.5375 22.9113 55.2949 23.1815 54.4784 23.2919C53.2832 23.4556 52.0841 23.5838 50.8969 23.785C50.6174 23.872 50.3782 24.0559 50.2224 24.3037C49.4335 25.4298 49.6031 26.4218 50.5971 27.3823C51.1572 27.9227 51.5575 28.6287 52.0466 29.246C52.4667 29.7765 52.4707 30.2558 51.9776 30.7469C50.5787 32.1353 49.1856 33.5297 47.7985 34.9299C47.3607 35.3697 46.9209 35.4052 46.418 35.0207C45.4457 34.2653 44.4457 33.5356 43.4873 32.7723C43.1618 32.5159 42.8956 32.5278 42.5011 32.6303C41.231 32.9558 40.665 33.6894 40.6768 35.0128C40.6768 35.8411 40.454 36.6694 40.3613 37.5017C40.2883 38.1683 39.9373 38.4523 39.2825 38.4385C38.6277 38.4247 37.9651 38.4385 37.261 38.4385V49.7846C39.103 49.7846 40.9175 49.7846 42.7319 49.7846C43.1726 49.778 43.6123 49.8298 44.0395 49.9385C44.7095 50.128 45.3004 50.529 45.724 51.0816C46.1476 51.6343 46.3814 52.309 46.3903 53.0053C46.414 56.5802 46.414 60.1552 46.3903 63.7302C46.4005 64.5689 46.0797 65.3779 45.4975 65.9818C44.9154 66.5858 44.1187 66.936 43.2802 66.9567C38.656 67.0067 34.0305 67.0067 29.4037 66.9567C28.5777 66.9438 27.7898 66.6075 27.209 66.0201C26.6282 65.4327 26.301 64.641 26.2974 63.815C26.2567 60.19 26.2567 56.5658 26.2974 52.9422C26.3191 51.1672 27.7746 49.8083 29.5595 49.7866C31.4784 49.759 33.3974 49.7669 35.3164 49.759C35.3361 49.759 35.3558 49.7353 35.4229 49.6959V38.4168C34.7937 38.4168 34.1646 38.4168 33.5355 38.4168C32.6223 38.4168 32.4231 38.2551 32.2851 37.336C32.1096 36.1665 31.9399 34.995 31.8137 33.8216C31.7703 33.4271 31.5889 33.2772 31.2654 33.0721C30.0821 32.3266 29.1217 32.5574 28.173 33.5119C27.6208 34.0661 26.9246 34.4724 26.3113 34.9635C25.8024 35.3717 25.3449 35.3717 24.8775 34.9004C23.4746 33.483 22.0664 32.0696 20.653 30.6601C20.2073 30.2144 20.2191 29.7706 20.5978 29.2795C21.3235 28.3467 22.0158 27.3882 22.7672 26.4691C23.0847 26.0747 23.0551 25.7611 22.9348 25.2858C22.6094 23.992 21.8146 23.5601 20.5682 23.57C19.7891 23.57 19.0062 23.3886 18.2291 23.2742C17.3988 23.1519 17.1839 22.8994 17.1779 22.0593C17.1779 21.3217 17.1779 20.586 17.1779 19.7952H10.433V31.8513C11.7997 31.8513 13.1467 31.9026 14.4898 31.8336C15.3556 31.7902 15.9571 32.088 16.5527 32.6994C18.8168 35.0483 21.1421 37.3577 23.4693 39.6632C23.6658 39.8465 23.8203 40.07 23.9224 40.3185C24.0246 40.5669 24.0718 40.8345 24.061 41.103C24.0452 46.1065 24.061 51.1119 24.0491 56.1174C24.0491 58.4841 22.6686 59.8429 20.3394 59.8429H3.65645C1.37854 59.8429 0.00785067 58.492 0.00390625 56.2279C0.00390625 49.3001 0.00390625 42.3718 0.00390625 35.4427C0.00390625 33.2003 1.34896 31.8592 3.58348 31.8415C5.2283 31.8296 6.87313 31.8415 8.60079 31.8415C8.62051 31.5042 8.65009 31.2202 8.65009 30.9382C8.65009 27.0924 8.65009 23.2459 8.65009 19.3988C8.65009 18.2352 8.88084 18.0044 10.0306 18.0024H17.1661C17.1661 17.3911 17.1839 16.8546 17.1661 16.3182C17.1385 15.62 17.4698 15.269 18.1522 15.1841C19.3474 15.0343 20.5406 14.8587 21.7357 14.7226C22.1479 14.6753 22.3274 14.4781 22.5404 14.1172C23.2405 12.9516 23.0591 12.0168 22.1085 11.08C21.5365 10.5159 21.1224 9.79606 20.6175 9.15509C20.2132 8.63837 20.2546 8.18082 20.72 7.71932C22.1177 6.33089 23.5094 4.93653 24.8952 3.53626C25.3646 3.06096 25.8241 3.07674 26.331 3.47118C27.3033 4.22654 28.3032 4.95034 29.2597 5.7195C29.5772 5.97391 29.8218 5.92658 30.1847 5.82995C31.4311 5.50453 32.0543 4.81623 32.0208 3.46329C32.0011 2.63891 32.2575 1.8086 32.3482 0.978302C32.4192 0.315638 32.7564 0.00600053 33.4053 0.00402832H39.3101C39.9491 0.00402832 40.3061 0.295916 40.385 0.962524C40.5289 2.1853 40.6867 3.40807 40.9036 4.61901C40.951 4.88526 41.2192 5.16334 41.4578 5.33492C42.5938 6.15536 43.574 5.88319 44.5227 4.92864C45.0729 4.37445 45.7691 3.97015 46.3844 3.47907C46.8913 3.08462 47.3469 3.06293 47.8182 3.53823C49.2027 4.9385 50.5944 6.33352 51.9934 7.72327C52.4569 8.18476 52.4865 8.64232 52.0861 9.16101C51.3485 10.1156 50.6424 11.0957 49.891 12.0404C49.6129 12.3895 49.6445 12.6577 49.7411 13.0877C50.0547 14.4682 50.9245 14.8863 52.2182 14.8962C53.0229 14.8962 53.8276 15.0934 54.6302 15.198C55.2357 15.2808 55.5473 15.6259 55.5454 16.2452V18.0044H59.9533C60.8881 18.0044 61.8229 18.0044 62.7597 18.0044C63.8168 18.0044 64.0732 18.2549 64.0752 19.308C64.0752 23.1552 64.0752 27.0016 64.0752 30.8475V31.8138C64.3907 31.8276 64.6491 31.8513 64.9075 31.8513C66.359 31.8513 67.8105 31.8395 69.2621 31.8513C71.3388 31.8927 72.7194 33.2417 72.7194 35.348C72.7352 42.3494 72.7352 49.3514 72.7194 56.3541C72.7194 58.49 71.325 59.8548 69.1852 59.8567C63.5315 59.8672 57.8726 59.8672 52.2084 59.8567C50.1139 59.8567 48.7038 58.5018 48.6919 56.4034C48.663 51.227 48.663 46.0493 48.6919 40.8702C48.712 40.4856 48.867 40.1204 49.1298 39.8388C51.6174 37.3025 54.1254 34.7925 56.6537 32.3089C56.961 32.0448 57.3493 31.8938 57.7542 31.8809C59.2492 31.8336 60.7461 31.8612 62.3199 31.8612ZM38.7046 36.7207C38.9019 35.3895 39.0991 34.0799 39.2569 32.7763C39.3259 32.2043 39.6178 31.9184 40.1443 31.7409C40.8503 31.5318 41.5335 31.2524 42.1836 30.9066C42.9252 30.4767 43.4794 30.5891 44.1085 31.1137C45.0275 31.8809 46.0077 32.5731 46.8696 33.2299L50.2795 29.812C49.536 28.8259 48.759 27.7787 47.9583 26.7512C47.7938 26.5681 47.6926 26.3369 47.6695 26.0919C47.6464 25.8469 47.7027 25.6009 47.8301 25.3903C48.1928 24.6942 48.4956 23.9684 48.7353 23.2209C48.9523 22.4853 49.3842 22.2052 50.1159 22.1322C51.3288 22.01 52.5377 21.8147 53.7546 21.651V16.8171C52.5279 16.6554 51.3406 16.472 50.1454 16.3478C49.4019 16.2708 48.9384 15.9868 48.7294 15.2098C48.5306 14.5244 48.2568 13.8629 47.9129 13.2376C47.6013 12.6459 47.5954 12.1568 48.0352 11.6144C48.8379 10.6283 49.5913 9.5949 50.3131 8.65612L46.8972 5.24025C46.0215 5.90489 45.0571 6.58333 44.1578 7.33869C43.507 7.88499 42.9232 8.03488 42.1738 7.53591C41.7502 7.23694 41.2684 7.03062 40.7597 6.93044C39.5764 6.73322 39.2233 6.01533 39.1523 4.92667C39.0813 3.83801 38.8742 2.8026 38.7303 1.77113H33.9516C33.7682 3.09054 33.571 4.37642 33.4191 5.67019C33.4035 5.91543 33.312 6.14973 33.1572 6.34057C33.0024 6.53142 32.792 6.66934 32.5553 6.73519C31.7925 6.99182 31.0451 7.29209 30.3168 7.63452C29.7252 7.92838 29.2775 7.90471 28.7647 7.49449C27.7687 6.70561 26.7373 5.9463 25.7709 5.21264L22.3688 8.63049C23.1005 9.59687 23.8558 10.6264 24.6487 11.6263C25.0569 12.1391 25.0786 12.6124 24.7749 13.1843C24.4288 13.835 24.1474 14.518 23.9347 15.2236C23.7217 15.9494 23.2957 16.259 22.5739 16.3359C21.359 16.4681 20.1501 16.6574 18.878 16.8309C18.878 18.3377 18.8622 19.7893 18.8997 21.2369C18.8997 21.3887 19.2073 21.6313 19.3986 21.6668C20.4893 21.8502 21.5858 21.9942 22.6843 22.1283C23.276 22.2013 23.6705 22.4261 23.8677 23.0474C24.1019 23.7989 24.4008 24.5287 24.7611 25.2286C25.0786 25.8361 25.049 26.3173 24.625 26.8518C23.8361 27.8379 23.0808 28.8733 22.4004 29.7706L25.8202 33.1964C26.7866 32.4627 27.8318 31.6856 28.8554 30.883C29.0386 30.72 29.2692 30.6201 29.5134 30.5977C29.7576 30.5754 30.0025 30.6318 30.2123 30.7587C30.9619 31.1245 31.7324 31.4459 32.5198 31.7211C33.0759 31.9184 33.358 32.228 33.427 32.8256C33.5749 34.1174 33.778 35.4033 33.9615 36.7148L38.7046 36.7207ZM14.4346 33.5908C14.1427 33.5731 13.9711 33.5553 13.8015 33.5553C10.4317 33.5553 7.06048 33.5553 3.688 33.5553C2.32323 33.5553 1.70001 34.1766 1.69804 35.5472C1.69804 42.4013 1.69804 49.2554 1.69804 56.1095C1.69804 57.5473 2.27787 58.1192 3.72547 58.1212C9.23846 58.1212 14.7501 58.1212 20.2605 58.1212C21.7574 58.1212 22.3254 57.5532 22.3254 56.074C22.3254 51.463 22.3254 46.852 22.3254 42.2409C22.3254 42.0043 22.3057 41.7656 22.2919 41.4777H18.3277C15.7323 41.4777 14.4405 40.178 14.4346 37.5648C14.4326 36.2632 14.4346 34.9615 14.4346 33.5908ZM58.2749 33.5533C58.2749 35.0305 58.3262 36.4071 58.2532 37.7758C58.2333 38.4826 58.0674 39.1775 57.7661 39.8171C57.1586 40.9866 56.066 41.4718 54.7644 41.4757C53.3246 41.4757 51.883 41.4757 50.4137 41.4757C50.3999 41.6887 50.3861 41.807 50.3861 41.9254C50.3861 46.7297 50.3861 51.534 50.3861 56.3383C50.3861 57.4782 51.0231 58.1133 52.1867 58.1133C57.8404 58.1251 63.494 58.1251 69.1477 58.1133C70.3843 58.1133 71.0016 57.4881 71.0036 56.2338C71.0128 49.31 71.0128 42.3869 71.0036 35.4644C71.0036 34.1904 70.3587 33.5652 69.0866 33.5514C67.8579 33.5395 66.6292 33.5514 65.3985 33.5514L58.2749 33.5533ZM36.3557 51.5379C34.2159 51.5379 32.076 51.5379 29.9381 51.5379C28.597 51.5379 27.9916 52.1296 27.9876 53.4668C27.9758 56.7682 27.9758 60.0697 27.9876 63.3712C27.9876 64.6867 28.6306 65.306 29.9598 65.3079C34.2119 65.3079 38.4653 65.3079 42.7201 65.3079C44.073 65.3079 44.6923 64.7281 44.6923 63.3949C44.7041 60.0697 44.7041 56.7439 44.6923 53.4175C44.6923 52.1099 44.0907 51.5419 42.7792 51.5379C40.6335 51.534 38.4936 51.5379 36.3557 51.5379ZM16.1524 34.9911C16.1524 36.0699 16.1169 37.1467 16.1642 38.2196C16.1977 38.9927 16.7559 39.6534 17.4797 39.6968C18.6177 39.7638 19.7635 39.7145 20.8719 39.7145L16.1524 34.9911ZM51.7962 39.7362C52.8651 39.7362 53.8966 39.754 54.9281 39.7362C55.7169 39.7204 56.3993 39.2767 56.4664 38.5213C56.5709 37.338 56.494 36.1547 56.494 35.0443L51.7962 39.7362Z" fill="#EF4423"/>
<path d="M27.7688 19.231C27.7688 16.953 28.6706 14.7677 30.2771 13.1527C31.8836 11.5377 34.0641 10.6244 36.342 10.6124C38.6196 10.6249 40.8 11.5373 42.4078 13.1506C44.0156 14.7639 44.9204 16.9474 44.9251 19.2251C44.9246 21.5034 44.022 23.6888 42.4147 25.3035C40.8074 26.9181 38.6262 27.8307 36.3479 27.8417C34.0697 27.8333 31.8876 26.9224 30.2796 25.3085C28.6716 23.6946 27.7688 21.5092 27.7688 19.231ZM43.2033 19.2566C43.2098 18.356 43.0387 17.4628 42.6998 16.6283C42.3609 15.7938 41.8608 15.0343 41.2281 14.3933C40.5955 13.7522 39.8427 13.2421 39.0127 12.8921C38.1828 12.5422 37.292 12.3593 36.3913 12.3539C35.4843 12.349 34.5852 12.5233 33.7456 12.8668C32.9061 13.2103 32.1428 13.7163 31.4993 14.3557C30.8559 14.995 30.3452 15.7552 29.9964 16.5925C29.6476 17.4299 29.4676 18.3279 29.4669 19.2349C29.4764 21.0408 30.1918 22.7714 31.4602 24.0568C32.7287 25.3422 34.4496 26.0806 36.2552 26.114C37.1624 26.1226 38.0624 25.9518 38.9033 25.6113C39.7443 25.2708 40.5096 24.7675 41.1553 24.1302C41.801 23.4929 42.3144 22.7343 42.6659 21.8979C43.0173 21.0615 43.2 20.1639 43.2033 19.2566Z" fill="#EF4423"/>
<path d="M8.7565 42.7044C8.25772 42.7034 7.76409 42.6034 7.30424 42.4102C6.84438 42.217 6.42745 41.9344 6.07761 41.5789C5.72777 41.2234 5.45197 40.8019 5.26622 40.339C5.08046 39.8761 4.98845 39.381 4.99549 38.8822C5.00018 37.8871 5.39865 36.9343 6.10378 36.2322C6.80891 35.53 7.76336 35.1355 8.75848 35.135C9.76461 35.1355 10.7297 35.5339 11.4432 36.2433C12.1566 36.9527 12.5606 37.9155 12.5668 38.9217C12.5653 39.4203 12.4655 39.9137 12.2731 40.3738C12.0807 40.8338 11.7995 41.2514 11.4457 41.6027C11.0918 41.954 10.6721 42.2322 10.2107 42.4212C9.7493 42.6102 9.25514 42.7064 8.7565 42.7044ZM8.77228 36.841C8.22463 36.8461 7.70076 37.0655 7.31294 37.4522C6.92512 37.8389 6.70419 38.3622 6.69751 38.9098C6.70374 39.4567 6.92523 39.9791 7.31396 40.3637C7.7027 40.7484 8.22737 40.9644 8.77426 40.9649C9.04542 40.9683 9.31452 40.9174 9.56567 40.8151C9.81682 40.7128 10.0449 40.5612 10.2365 40.3693C10.4281 40.1773 10.5792 39.9489 10.681 39.6976C10.7829 39.4462 10.8333 39.177 10.8293 38.9059C10.8317 38.6347 10.7801 38.3658 10.6777 38.1147C10.5752 37.8637 10.4239 37.6354 10.2325 37.4433C10.0412 37.2512 9.81353 37.099 9.56286 36.9956C9.31218 36.8922 9.04345 36.8397 8.77228 36.841Z" fill="#EF4423"/>
<path d="M11.9851 46.9722C10.0129 46.9722 8.04598 46.9722 6.08429 46.9722C5.60109 46.9722 5.19876 46.8539 5.04295 46.3431C4.85756 45.7317 5.27962 45.2485 6.04089 45.2347C7.12166 45.215 8.21033 45.2347 9.28716 45.2347H17.5468C17.7678 45.2251 17.9892 45.2304 18.2094 45.2505C18.7104 45.3195 19.0457 45.6094 19.0338 46.1242C19.022 46.6389 18.6907 46.9367 18.1799 46.9663C17.6691 46.9959 17.1484 46.9663 16.6317 46.9663C15.0841 46.9716 13.5353 46.9736 11.9851 46.9722Z" fill="#EF4423"/>
<path d="M12.0562 49.4927C13.9988 49.4927 15.9394 49.5026 17.8821 49.4927C18.4994 49.4927 18.9688 49.6544 19.0398 50.3368C19.093 50.8614 18.6355 51.2184 17.9176 51.2204C13.985 51.2204 10.0517 51.2204 6.11783 51.2204C5.37825 51.2204 4.97 50.891 5.01142 50.3368C5.0627 49.6288 5.54786 49.4907 6.15727 49.4927C8.12357 49.5006 10.0899 49.4927 12.0562 49.4927Z" fill="#EF4423"/>
<path d="M12.0343 53.7487C14.0243 53.7487 16.0162 53.725 18.0062 53.7724C18.188 53.7946 18.3636 53.8527 18.5228 53.9435C18.6819 54.0342 18.8214 54.1557 18.9331 54.3009C19.0574 54.4646 18.9509 54.934 18.7891 55.1431C18.6274 55.3521 18.2783 55.433 18.0101 55.435C14.0046 55.4527 9.99899 55.4468 5.99343 55.4468C5.41952 55.4468 5.00732 55.2141 5.00732 54.6007C5.00732 53.9874 5.40177 53.7487 5.98357 53.7487H12.0343Z" fill="#EF4423"/>
<path d="M63.9667 35.1271C64.4656 35.1286 64.9591 35.2293 65.4186 35.4235C65.8782 35.6176 66.2944 35.9013 66.6432 36.258C66.992 36.6147 67.2663 37.0372 67.4501 37.5009C67.6339 37.9647 67.7236 38.4604 67.7139 38.9591C67.7087 39.9561 67.3084 40.9104 66.6009 41.6128C65.8933 42.3152 64.9361 42.7084 63.9391 42.7063C62.9304 42.7027 61.9643 42.2994 61.2523 41.5849C60.5404 40.8703 60.1406 39.9027 60.1406 38.894C60.144 38.3953 60.2457 37.9021 60.4399 37.4428C60.6341 36.9834 60.9169 36.5669 61.2723 36.217C61.6277 35.8671 62.0486 35.5907 62.511 35.4037C62.9733 35.2167 63.468 35.1227 63.9667 35.1271ZM63.9214 36.8626C63.6502 36.8613 63.3814 36.9142 63.1311 37.0185C62.8807 37.1227 62.6538 37.276 62.4637 37.4695C62.2735 37.6629 62.1241 37.8924 62.0242 38.1446C61.9244 38.3967 61.876 38.6663 61.8821 38.9374C61.8821 39.2084 61.9358 39.4768 62.0401 39.7269C62.1444 39.9771 62.2972 40.2041 62.4898 40.3948C62.6824 40.5855 62.9108 40.7362 63.1619 40.8381C63.4131 40.94 63.6819 40.9911 63.9529 40.9885C64.5005 40.9798 65.0229 40.7568 65.4082 40.3675C65.7934 39.9783 66.0108 39.4535 66.0139 38.9059C66.004 38.3585 65.7788 37.8371 65.3871 37.4546C64.9955 37.0721 64.4688 36.8594 63.9214 36.8626Z" fill="#EF4423"/>
<path d="M60.6989 49.4927C62.6409 49.4927 64.5835 49.4927 66.5268 49.4927C67.3295 49.4927 67.7377 49.7944 67.6983 50.3743C67.649 51.0922 67.1401 51.2184 66.5465 51.2184C62.6376 51.2184 58.7286 51.2184 54.8197 51.2184C54.2103 51.2184 53.7291 51.0448 53.6719 50.3565C53.6265 49.8221 54.0663 49.4947 54.8 49.4927C56.767 49.4901 58.7333 49.4901 60.6989 49.4927Z" fill="#EF4423"/>
<path d="M60.6514 46.9721C58.8106 46.9721 56.9666 46.9721 55.1193 46.9721C54.9477 46.9721 54.7761 46.9721 54.6046 46.9721C54.0583 46.9485 53.6914 46.6704 53.6776 46.1241C53.6638 45.5778 54.0366 45.2662 54.571 45.2445C55.3086 45.2149 56.0462 45.2326 56.7839 45.2326C59.9315 45.2326 63.0785 45.2326 66.2248 45.2326C66.4458 45.2214 66.6672 45.226 66.8875 45.2465C67.3845 45.3194 67.7139 45.5896 67.6961 46.1261C67.6784 46.6625 67.3529 46.9149 66.848 46.9662C66.6272 46.9879 66.4043 46.9662 66.1834 46.9662C64.3387 46.9715 62.4947 46.9735 60.6514 46.9721Z" fill="#EF4423"/>
<path d="M60.7166 53.7487C62.7086 53.7487 64.6985 53.7487 66.6885 53.7487C67.4774 53.7487 67.9547 54.3286 67.6174 54.9104C67.5188 55.054 67.3897 55.174 67.2394 55.262C67.0891 55.3499 66.9211 55.4036 66.7477 55.4192C62.7165 55.4527 58.6872 55.4409 54.656 55.4429C54.0644 55.4429 53.6699 55.1746 53.6699 54.5869C53.6699 53.9992 54.0841 53.7408 54.656 53.7428C56.6821 53.7494 58.7024 53.7514 60.7166 53.7487Z" fill="#EF4423"/>
<path d="M36.2512 57.2237C34.703 57.2237 33.1529 57.2237 31.6047 57.2237C30.875 57.2237 30.4411 56.8845 30.5002 56.3461C30.5712 55.7051 31.0051 55.5276 31.6007 55.5316C34.7721 55.5408 37.9434 55.5408 41.1147 55.5316C41.7162 55.5316 42.1679 55.7288 42.1698 56.3776C42.1718 57.0265 41.7182 57.2336 41.1186 57.2296C39.4955 57.2158 37.8724 57.2217 36.2512 57.2237Z" fill="#EF4423"/>
<path d="M34.6556 61.3161C33.6242 61.3161 32.5907 61.3161 31.5593 61.3161C30.9558 61.3161 30.51 61.0736 30.5179 60.4405C30.5258 59.8074 30.9893 59.5767 31.5829 59.5786C33.6459 59.5786 35.7094 59.5786 37.7737 59.5786C38.3654 59.5786 38.8269 59.8271 38.817 60.4602C38.8071 61.0933 38.3496 61.3221 37.752 61.3181C36.7107 61.3102 35.6792 61.3161 34.6556 61.3161Z" fill="#EF4423"/>
</g>
<defs>
<clipPath id="clip0_53_232">
<rect width="72.7273" height="67" fill="white"/>
</clipPath>
</defs>
</svg>
