<svg width="91" height="91" viewBox="0 0 91 91" fill="none" xmlns="http://www.w3.org/2000/svg">
<g clip-path="url(#clip0_77_14)">
<path d="M73.7946 91.0001C71.53 90.3449 69.7591 88.942 68.1853 87.2566C68.0033 87.0494 67.7762 86.8866 67.5215 86.7808C67.2667 86.6751 66.9911 86.6291 66.7159 86.6465C56.556 86.6608 46.3953 86.6608 36.2338 86.6465C35.7903 86.6619 35.3465 86.6317 34.9092 86.5563C34.5144 86.4717 34.1639 86.2463 33.9232 85.9222C33.6825 85.598 33.5681 85.1973 33.6012 84.795C33.6091 84.3915 33.7623 84.0044 34.0327 83.7048C34.303 83.4052 34.6724 83.2132 35.073 83.1641C35.4264 83.1305 35.7816 83.1194 36.1365 83.1309H64.7551C64.4679 82.6846 64.2614 82.3476 64.043 82.0223C60.2449 76.5151 58.3791 70.4263 58.5405 63.725C58.5785 62.099 59.0532 61.5886 60.6508 61.3275C61.8377 61.1304 62.9985 60.81 64.3729 60.499C62.0168 58.0166 59.2217 55.9917 56.1287 54.5265C56.0053 55.7466 55.9649 56.9003 55.7608 58.0136C55.1364 61.4509 53.2659 64.2425 51.0131 66.7967C50.2464 67.6655 49.2233 67.5991 48.288 66.697C45.2638 63.7741 42.2451 60.8464 39.2319 57.9139C39.0207 57.7193 38.7833 57.5175 38.5459 57.2754C38.2919 57.5128 38.0545 57.7193 37.8337 57.94C34.8807 60.8108 31.9293 63.6815 28.9794 66.5522C27.7284 67.7652 26.8003 67.7011 25.6988 66.3861C23.5885 63.8556 21.8343 61.1352 21.2835 57.8119C21.1103 56.765 21.0652 55.6992 20.9512 54.5218C20.6046 54.6927 20.2676 54.847 19.9423 55.0179C13.5663 58.3887 9.2602 63.6063 6.44011 70.1485C5.1492 73.1105 4.2268 76.2197 3.69361 79.4064C3.24496 82.1268 3.76958 82.9363 6.54219 83.0431C10.4162 83.195 14.2998 83.1238 18.1739 83.1475C18.6178 83.1475 19.064 83.1333 19.5056 83.1713C19.9389 83.1947 20.3478 83.3795 20.6518 83.6892C20.9558 83.9989 21.1329 84.4111 21.1482 84.8448C21.1553 85.2784 21.0023 85.6995 20.7186 86.0275C20.4348 86.3555 20.0402 86.5674 19.61 86.6228C19.4642 86.6489 19.3166 86.6632 19.1685 86.6655C14.8434 86.6418 10.5191 86.6141 6.1956 86.5824C5.81088 86.5689 5.42807 86.522 5.05144 86.4424C1.42901 85.7658 -0.472421 83.5392 0.118657 79.9097C2.42837 65.7071 9.16999 54.828 23.382 49.7623C23.5434 49.7053 23.6953 49.6222 23.8781 49.5391C23.0212 48.5113 22.15 47.5475 21.369 46.5149C18.2593 42.4035 16.384 37.8719 16.7092 32.6068C16.7519 31.916 16.5502 31.5172 15.9259 31.1255C15.0499 30.59 14.3327 29.8305 13.8481 28.9253C13.3636 28.0202 13.1294 27.0021 13.1695 25.9762C13.2097 24.9503 13.5228 23.9537 14.0766 23.0892C14.6304 22.2247 15.4048 21.5236 16.3199 21.0582C16.5154 20.9707 16.6843 20.8331 16.8094 20.6592C16.9345 20.4854 17.0113 20.2815 17.0321 20.0683C18.594 11.0027 23.7713 5.04444 32.4879 2.12703C32.7733 2.01 33.0109 1.80006 33.1621 1.53121C33.4036 1.05272 33.779 0.654777 34.2426 0.385873C34.7062 0.11697 35.238 -0.0112906 35.7733 0.0167151C37.7578 0.0167151 39.7423 0.0167151 41.7268 0.0167151C42.9825 0.0167151 43.8632 0.562691 44.4187 1.69262C44.5922 1.97765 44.8589 2.194 45.1736 2.30507C53.0641 5.10142 57.9921 10.5588 59.8176 18.7271C60.093 19.9591 60.4253 20.8445 61.5979 21.6492C64.9711 23.9685 64.6056 29.0626 61.0567 31.2133C60.6484 31.4507 60.3802 31.6881 60.4134 32.2246C60.8027 38.9211 57.9874 44.331 53.5674 49.0786C53.4487 49.2044 53.33 49.3374 53.1401 49.5534C58.7945 51.3693 63.6371 54.3675 67.7437 58.9465C69.5194 57.4748 71.2784 56.098 72.9448 54.6025C74.2599 53.4156 74.9981 53.38 76.2681 54.6191C79.5155 57.8095 83.2091 60.2308 87.7241 61.2207C87.8372 61.2554 87.9532 61.28 88.0707 61.2942C90.6035 61.4295 90.6819 62.4811 90.6819 64.3802C90.7555 72.4511 87.6861 79.2948 82.6679 85.4074C82.1931 85.9795 81.7065 86.535 81.2009 87.0691C79.5677 88.8209 77.7589 90.3188 75.3945 90.9882L73.7946 91.0001ZM20.2272 32.0608C20.2272 33.0507 20.1821 33.9385 20.2414 34.8191C20.2644 35.6209 20.3791 36.4173 20.5833 37.1929C22.7933 44.4592 27.5148 49.4347 34.5294 52.25C36.6373 53.0951 38.8569 53.3467 41.0574 52.6773C48.7984 50.3272 53.819 45.1689 56.3874 37.5704C56.9904 35.7924 56.9714 33.929 56.8266 32.0703L20.2272 32.0608ZM62.0466 64.7742C62.1368 65.9778 62.1605 67.1623 62.3267 68.335C63.3285 75.3781 66.8702 81.0704 71.8932 85.9154C74.0652 88.0091 75.1548 87.9877 77.3387 85.9154C81.6115 81.868 84.7284 77.0872 86.3069 71.3758C86.8783 69.2072 87.1545 66.9715 87.1283 64.7291C82.2453 63.6538 78.217 61.2112 74.6278 57.9804C68.5508 62.6497 67.917 62.9939 62.0466 64.7742ZM38.5079 28.5001H57.261C57.6167 28.5072 57.9725 28.4954 58.3268 28.4645C58.6376 28.438 58.9394 28.3466 59.2127 28.1963C59.486 28.0459 59.7247 27.84 59.9135 27.5917C60.1023 27.3434 60.2369 27.0583 60.3087 26.7548C60.3805 26.4513 60.3879 26.1361 60.3303 25.8295C60.1499 24.6735 59.2787 23.8972 57.9328 23.8972C44.9908 23.8783 32.048 23.8783 19.1044 23.8972C18.8969 23.9042 18.6907 23.9336 18.4896 23.9851C17.9921 24.0865 17.5443 24.3552 17.2209 24.7465C16.8974 25.1378 16.7176 25.6281 16.7116 26.1357C16.676 27.5933 17.6848 28.5096 19.4035 28.5096C25.7716 28.5175 32.1398 28.5143 38.5079 28.5001ZM32.8867 5.75659C25.7653 7.89302 20.9868 15.0263 20.6664 20.308C20.8026 20.3429 20.9416 20.3659 21.0818 20.3769C24.0704 20.3769 27.059 20.3769 30.0477 20.3959C30.5936 20.3959 30.7456 20.1158 30.8975 19.7003C32.5401 15.2115 32.8487 10.5398 32.8867 5.75659ZM44.6964 5.95124C44.2502 9.25796 45.2994 16.7663 46.6952 19.8831C46.8044 20.1205 47.2625 20.3579 47.5616 20.3579C50.3152 20.3959 53.0689 20.3816 55.8225 20.3769C56.0438 20.3646 56.2641 20.3392 56.4824 20.3009C55.6373 13.329 50.1206 7.57255 44.6964 5.95124ZM36.4498 3.57743C36.3928 9.27457 36.324 14.8791 34.4155 20.308H43.0799C41.1333 14.8293 41.0764 9.20811 41.0526 3.57743H36.4498ZM34.5318 56.2262C32.5188 55.2173 30.4227 54.3746 28.5664 53.1616C27.3795 52.3806 26.3777 52.3782 25.2264 52.8696C25.1053 52.9259 24.9985 53.009 24.9142 53.1126C24.8299 53.2162 24.7702 53.3377 24.7398 53.4678C24.6995 54.7022 24.5974 55.9532 24.7588 57.1662C25.0508 59.3715 26.1166 61.2539 27.5457 63.0176C29.9646 60.6581 32.3099 58.3792 34.5318 56.2167V56.2262ZM49.4868 62.9939C50.5345 61.8345 51.3367 60.4751 51.8451 58.9974C52.3534 57.5198 52.5573 55.9545 52.4445 54.3959C52.4161 53.888 52.2641 53.069 51.9579 52.955C51.0915 52.6275 50.1965 51.9889 49.1544 52.7651C47.285 54.1251 45.198 55.1574 42.9825 55.8179C42.784 55.8933 42.5899 55.9797 42.401 56.0766L49.4868 62.9939Z" fill="white"/>
<path d="M25.6086 84.8707C25.6072 84.6407 25.6522 84.4128 25.7409 84.2005C25.8296 83.9883 25.9602 83.7961 26.1248 83.6355C26.2894 83.4748 26.4847 83.349 26.6991 83.2656C26.9134 83.1821 27.1424 83.1427 27.3723 83.1497C27.8368 83.151 28.2818 83.3364 28.6097 83.6652C28.9377 83.9941 29.1218 84.4395 29.1218 84.904C29.1131 85.3688 28.9211 85.8115 28.5877 86.1355C28.2543 86.4596 27.8064 86.6389 27.3415 86.6345C27.1115 86.6339 26.8839 86.5876 26.6719 86.4984C26.4599 86.4091 26.2677 86.2787 26.1065 86.1146C25.9454 85.9506 25.8183 85.7561 25.7328 85.5426C25.6474 85.3291 25.6051 85.1007 25.6086 84.8707Z" fill="white"/>
<path d="M73.6523 73.8612C75.2 72.1544 76.705 70.4951 78.2147 68.8382C78.7298 68.2709 79.3446 67.9979 80.1138 68.2305C80.8069 68.4394 81.3007 68.9142 81.3007 69.6097C81.3182 70.1581 81.151 70.6965 80.8259 71.1384C78.9886 73.2606 77.0919 75.333 75.1834 77.3958C74.4522 78.1863 73.5858 78.2432 72.717 77.6118C71.7374 76.8997 70.7752 76.163 69.8304 75.4018C68.9901 74.7276 68.8453 73.6618 69.4387 72.8903C70.0322 72.1188 71.0672 71.9621 71.9835 72.6031C72.5342 72.99 73.0635 73.4102 73.6523 73.8612Z" fill="white"/>
</g>
<defs>
<clipPath id="clip0_77_14">
<rect width="90.6819" height="91" fill="white"/>
</clipPath>
</defs>
</svg>
