<svg width="85" height="85" viewBox="0 0 85 85" fill="none" xmlns="http://www.w3.org/2000/svg">
<g clip-path="url(#clip0_46_130)">
<path d="M84.3844 22.0799C84.314 22.3132 84.2436 22.5465 84.1643 22.7798C83.9089 23.6577 83.3789 24.4306 82.6521 24.9852C81.9252 25.5397 81.0397 25.8467 80.1256 25.8612C77.4624 25.8942 74.7971 25.8788 72.1339 25.8612C71.2536 25.8612 70.6967 25.3615 70.7011 24.622C70.7055 23.8825 71.2536 23.4005 72.1471 23.3983C74.6474 23.3983 77.1455 23.3983 79.6458 23.3983C81.1644 23.3983 81.8754 22.7028 81.8775 21.1973C81.8775 15.6774 81.8775 10.1574 81.8775 4.6374C81.8775 3.17818 81.1534 2.47387 79.6898 2.47387H4.71005C3.2046 2.47387 2.5091 3.17817 2.5091 4.70123C2.5091 10.1655 2.5091 15.6304 2.5091 21.0961C2.5091 22.7248 3.18479 23.4027 4.80689 23.4027C15.5739 23.4027 26.3403 23.4027 37.1058 23.4027C38.4484 23.4027 38.5915 23.5017 39.1109 24.7673C40.1057 27.2015 41.0918 29.6358 42.1636 32.2329C42.3265 31.916 42.4409 31.7267 42.5246 31.5242C43.4776 29.189 44.4394 26.8582 45.3682 24.5142C45.6829 23.7174 46.1936 23.3873 47.0629 23.3917C53.296 23.4137 59.5313 23.3917 65.771 23.4049C65.9628 23.3919 66.1554 23.4001 66.3454 23.4291C66.9881 23.5722 67.3711 23.997 67.3667 24.6462C67.3768 24.94 67.2757 25.2268 67.0835 25.4492C66.8913 25.6716 66.6222 25.8132 66.33 25.8458C66.0579 25.8807 65.783 25.8903 65.5091 25.8744C59.824 25.8744 54.139 25.8898 48.4539 25.8568C47.7474 25.8568 47.3975 26.0262 47.1334 26.7151C46.3608 28.7664 45.5003 30.7869 44.6705 32.8162C44.1489 34.0883 43.2751 34.7662 42.1592 34.7134C40.9201 34.654 40.1784 33.9497 39.7206 32.8206C38.8006 30.5052 37.8454 28.1986 36.8945 25.8744H35.8689C25.5714 25.8744 15.2717 25.8744 4.96976 25.8744C1.74757 25.8744 0.0352375 24.1642 0.0352375 20.953C0.0352375 15.8182 0.107866 10.6812 0.00442096 5.54639C-0.0506028 2.84583 0.805567 0.906795 3.47092 -0.00219727H80.9267C82.7821 0.620671 83.9662 1.8554 84.3866 3.78784L84.3844 22.0799Z" fill="white"/>
<path d="M47.4085 52.3848H48.2889C52.4091 52.3848 56.5293 52.4178 60.6472 52.3848C62.8944 52.3628 64.6354 53.175 65.5994 55.2461C66.5634 57.3171 66.1276 59.2078 64.5869 60.8519C64.5489 60.9124 64.5186 60.9775 64.4967 61.0456C64.991 61.5145 65.3848 62.079 65.6541 62.7048C65.9235 63.3306 66.0629 64.0046 66.0638 64.6859C66.0726 65.3744 65.9337 66.0567 65.6566 66.6869C65.3794 67.3172 64.9704 67.8807 64.4571 68.3395C65.6742 69.6601 66.3125 71.1611 65.9735 72.9747C65.8359 73.7839 65.494 74.5446 64.9802 75.1847C64.4664 75.8249 63.7977 76.3232 63.0375 76.6327C63.1893 77.852 63.5261 79.0097 63.4336 80.13C63.2356 82.518 61.1469 84.3118 58.7346 84.3624C57.4141 84.3932 56.0935 84.3932 54.7729 84.3624C52.6556 84.314 51.0753 83.35 50.2191 81.4043C49.363 79.4587 49.7305 77.6627 51.1479 76.067C51.2184 75.9856 51.2866 75.8998 51.4187 75.7435C50.9167 75.2813 50.5162 74.7198 50.2427 74.0946C49.9691 73.4695 49.8285 72.7943 49.8296 72.1119C49.8102 71.4088 49.9466 70.7102 50.2289 70.066C50.5112 69.4218 50.9326 68.848 51.4627 68.3857C50.9525 67.9224 50.5439 67.3583 50.2628 66.7291C49.9817 66.0998 49.8342 65.4191 49.8296 64.7299C49.8037 64.0727 49.9178 63.4174 50.1645 62.8076C50.4111 62.1978 50.7846 61.6475 51.2602 61.193C50.7892 60.13 50.1597 59.1836 49.9748 58.1579C49.79 57.1323 50.0607 56.023 50.1377 54.8565C49.0372 54.8565 47.7277 54.8565 46.4269 54.8565C45.0293 54.8565 44.6001 54.3459 44.7718 52.9901C45.2369 49.3688 45.6911 45.7475 46.1342 42.1262C46.286 40.8849 45.9339 40.1453 45.1195 39.8658C44.2216 39.5555 43.1871 39.9781 42.6127 40.9663C41.3559 43.1232 39.9715 45.2229 38.9415 47.4877C38.1403 49.2485 37.797 51.2425 37.271 53.1375C37.0971 53.7714 37.0046 54.4273 36.8418 55.0634C36.2915 57.2137 34.6408 58.5167 32.4157 58.5255C28.7093 58.5409 25.0007 58.5255 21.2943 58.5255C19.7074 58.5255 19.287 58.9459 19.287 60.5239V76.833C19.287 78.3516 19.7096 78.7676 21.2568 78.7676C23.372 78.7676 25.4893 78.838 27.6 78.7478C29.3546 78.648 31.1081 78.9616 32.7194 79.6634C36.7259 81.4471 41.1107 82.2145 45.4849 81.8974C45.9246 81.8674 46.3658 81.8674 46.8055 81.8974C46.964 81.8959 47.1212 81.926 47.2679 81.986C47.4147 82.046 47.548 82.1346 47.66 82.2467C47.7721 82.3588 47.8608 82.4921 47.9207 82.6388C47.9807 82.7855 48.0109 82.9428 48.0094 83.1013C48.0193 83.2603 47.9966 83.4196 47.9425 83.5695C47.8885 83.7194 47.8044 83.8566 47.6953 83.9727C47.5862 84.0888 47.4545 84.1813 47.3082 84.2445C47.162 84.3078 47.0044 84.3404 46.8451 84.3404C42.9516 84.3778 39.0361 84.6089 35.2835 83.2025C34.9996 83.0969 34.7068 83.0176 34.4339 82.89C31.3328 81.4374 28.071 80.9796 24.6727 81.2195C23.3345 81.3141 21.981 81.2569 20.6362 81.2195C20.1326 81.2201 19.6339 81.121 19.1687 80.9279C18.7036 80.7349 18.2813 80.4517 17.9261 80.0947C17.5709 79.7376 17.2899 79.3139 17.0993 78.8478C16.9086 78.3816 16.8121 77.8824 16.8153 77.3788C16.7963 71.5595 16.7963 65.7387 16.8153 59.9165C16.8153 57.6847 18.5299 56.0736 20.8783 56.0582C24.5583 56.0362 28.2383 56.0582 31.9182 56.0582C33.679 56.0582 34.1874 55.6378 34.5704 53.9123C34.7641 53.0319 34.9732 52.1515 35.1294 51.2557C35.5671 48.7645 36.4899 46.3835 37.8454 44.2479C38.8094 42.7072 39.6238 41.0917 40.5702 39.5511C42.4014 36.5666 46.581 36.5446 48.1657 39.474C48.7071 40.4733 48.6983 41.5231 48.5618 42.6016C48.1583 45.7578 47.7607 48.9125 47.3689 52.0657C47.3702 52.1732 47.3835 52.2802 47.4085 52.3848ZM57.9731 54.8631C56.932 54.8631 55.891 54.8631 54.8499 54.8631C53.3929 54.8829 52.3431 55.8359 52.2616 57.1917C52.2445 57.5149 52.2923 57.8383 52.4022 58.1427C52.5122 58.4471 52.6821 58.7264 52.9019 58.964C53.1216 59.2016 53.3868 59.3927 53.6817 59.5261C53.9766 59.6594 54.2953 59.7323 54.6188 59.7404C56.8374 59.8123 59.056 59.8123 61.2745 59.7404C61.5986 59.7331 61.9179 59.6602 62.213 59.5262C62.5082 59.3922 62.7732 59.1998 62.992 58.9606C63.2108 58.7214 63.379 58.4404 63.4863 58.1345C63.5936 57.8286 63.6378 57.5042 63.6163 57.1807C63.5525 55.8601 62.5159 54.8939 61.1072 54.8719C60.0662 54.8521 59.0251 54.8631 57.9841 54.8631H57.9731ZM57.9247 74.4934C58.4727 74.4934 59.0251 74.4934 59.5688 74.4934C60.1124 74.4934 60.7199 74.5132 61.2921 74.4802C61.9004 74.454 62.4766 74.1996 62.9057 73.7676C63.3348 73.3356 63.5854 72.7578 63.6075 72.1493C63.6537 70.8816 62.7646 69.7151 61.4858 69.6645C59.1616 69.572 56.8308 69.561 54.5066 69.6403C54.1963 69.6549 53.892 69.7307 53.6111 69.8631C53.3301 69.9956 53.0781 70.1821 52.8693 70.4121C52.6606 70.6421 52.4993 70.911 52.3946 71.2035C52.29 71.4959 52.244 71.8061 52.2594 72.1163C52.2784 72.7541 52.5468 73.3589 53.0069 73.8009C53.467 74.2429 54.0821 74.4868 54.7201 74.4802C55.7986 74.5132 56.8726 74.4934 57.9357 74.4934H57.9247ZM57.9775 62.2539C56.855 62.2539 55.7303 62.2231 54.61 62.2539C53.9866 62.272 53.3943 62.5299 52.9564 62.9739C52.5185 63.418 52.2688 64.0139 52.2594 64.6375C52.241 65.2642 52.4706 65.8728 52.8984 66.3311C53.3262 66.7894 53.9176 67.0603 54.544 67.085C56.789 67.14 59.0362 67.151 61.2789 67.0982C61.5955 67.0934 61.9079 67.0255 62.1978 66.8983C62.4877 66.7712 62.7493 66.5874 62.9673 66.3578C63.1852 66.1282 63.3551 65.8573 63.4669 65.5611C63.5787 65.265 63.6303 64.9495 63.6185 64.6331C63.6121 63.997 63.3536 63.3895 62.8997 62.9438C62.4458 62.4981 61.8336 62.2508 61.1975 62.2561C60.1256 62.2429 59.0582 62.2539 57.9885 62.2539H57.9775ZM56.6569 81.8885C57.3172 81.8885 57.9775 81.9084 58.6378 81.8885C59.2753 81.8821 59.8858 81.6301 60.3421 81.1848C60.7984 80.7396 61.0654 80.1355 61.0874 79.4983C61.1105 78.8728 60.8886 78.2629 60.4689 77.7984C60.0493 77.3339 59.465 77.0515 58.8403 77.0112C57.3904 76.9232 55.9366 76.9232 54.4868 77.0112C53.8649 77.0673 53.2887 77.3615 52.8786 77.8323C52.4684 78.3031 52.2561 78.9142 52.2858 79.5379C52.318 80.1624 52.5857 80.7515 53.035 81.1865C53.4842 81.6215 54.0817 81.87 54.7069 81.8819C55.332 81.9106 55.9922 81.8863 56.6525 81.8885H56.6569Z" fill="white"/>
<path d="M58.3516 11.7597C58.1183 12.2395 57.9115 12.7391 57.6407 13.1903C57.4586 13.4668 57.2237 13.7046 56.9496 13.8902C56.1683 14.4449 55.8492 15.1316 56.2035 16.0692C56.2645 16.2799 56.3065 16.4958 56.329 16.714C56.5006 17.7111 56.296 18.5827 55.4332 19.1945C54.61 19.7778 53.6856 19.8284 52.8867 19.2539C51.685 18.389 50.6043 18.3736 49.4004 19.2539C48.6014 19.8284 47.6704 19.7954 46.8517 19.2077C46.0329 18.6201 45.6808 17.7859 45.9713 16.8241C46.3917 15.4111 46.1254 14.3326 44.884 13.4324C44.0631 12.836 43.8276 11.9094 44.1929 10.9167C44.3288 10.4771 44.6037 10.0934 44.9765 9.82347C45.3492 9.55355 45.7995 9.41199 46.2596 9.4201C47.666 9.4201 48.531 8.84565 48.9778 7.47886C49.1134 7.00925 49.4058 6.60026 49.8063 6.31995C50.2067 6.03964 50.6911 5.90491 51.1787 5.93819C52.2396 5.9514 52.9989 6.50604 53.3027 7.46786C53.7429 8.88747 54.6849 9.35847 56.0891 9.44871C57.4272 9.50594 58.2174 10.4633 58.3516 11.7597ZM53.9806 16.9033C52.9285 14.7024 53.6372 13.1243 55.4728 11.8169C53.0672 11.9908 51.7488 10.8903 51.1479 8.63876C50.5361 10.8947 49.1671 11.9776 46.7636 11.8411C48.7951 13.1331 49.2705 14.808 48.3043 16.987C49.3674 16.5116 50.2037 15.8513 51.0511 15.8381C51.8985 15.8249 52.8008 16.4345 53.9806 16.9033Z" fill="white"/>
<path d="M28.0071 17.1432C28.0754 16.7426 28.1458 16.1131 28.2955 15.5012C28.3632 15.2939 28.3632 15.0705 28.2956 14.8632C28.2279 14.6558 28.0961 14.4754 27.9191 14.3479C27.5405 14.031 27.2038 13.6679 26.8538 13.3179C26.5376 13.0245 26.3146 12.6447 26.2125 12.2256C26.1104 11.8065 26.1336 11.3667 26.2794 10.9607C26.5479 10.1001 27.1906 9.45964 28.0622 9.45964C29.7459 9.45964 30.7033 8.73113 31.2491 7.15745C31.5331 6.32549 32.3078 5.92712 33.2168 5.91611C34.1588 5.90511 34.9489 6.30788 35.2593 7.17285C35.8007 8.68711 36.7185 9.44424 38.3758 9.44864C39.2782 9.44864 39.9165 10.0825 40.2268 10.9893C40.5371 11.8961 40.3501 12.7743 39.626 13.3135C38.3054 14.2929 37.9576 15.4352 38.4418 16.9869C38.706 17.8365 38.3164 18.6134 37.6011 19.157C36.8858 19.7007 35.9592 19.8877 35.213 19.3573C33.8485 18.3845 32.682 18.4945 31.2689 19.3573C29.8009 20.2377 28.0402 19.0602 28.0071 17.1432ZM28.9205 11.7178L28.9778 11.9687C29.429 12.4089 29.8691 12.8491 30.3335 13.2629C30.5838 13.4568 30.77 13.7214 30.8682 14.0224C30.9663 14.3234 30.9717 14.6469 30.8838 14.951C30.7341 15.5673 30.6835 16.21 30.5888 16.8416L30.6879 17.0617C32.4112 15.4044 34.1478 15.5717 35.9856 16.9627C35.07 14.7617 35.6576 13.1352 37.8146 11.8851C36.954 11.7398 36.4258 11.5924 35.8931 11.5748C34.9467 11.5439 34.3745 11.0927 34.0355 10.2322C33.8352 9.72596 33.5381 9.25715 33.2872 8.77074L33.0913 8.69811C32.6621 10.9783 31.2161 11.9247 28.9205 11.7178Z" fill="white"/>
<path d="M22.5642 11.7332C22.3777 12.2046 22.1654 12.6653 21.9281 13.1132C21.7537 13.3947 21.5211 13.6356 21.2458 13.8197C20.3522 14.425 20.1145 15.2107 20.4469 16.2188C20.542 16.5347 20.5945 16.8618 20.6032 17.1916C20.6339 17.5834 20.5618 17.9765 20.3939 18.3319C20.226 18.6873 19.9681 18.9927 19.6459 19.2177C19.3236 19.4428 18.9481 19.5798 18.5567 19.6151C18.1652 19.6503 17.7713 19.5827 17.414 19.4189C16.9326 19.2178 16.4694 18.9755 16.0296 18.6948C15.5454 18.3757 15.1382 18.4219 14.6694 18.719C14.2272 18.9946 13.7627 19.2324 13.2806 19.43C11.6035 20.1255 9.75907 18.7499 10.1817 17.0089C10.569 15.4374 10.3159 14.3105 9.00195 13.3267C8.27564 12.7853 8.08856 11.9181 8.38569 11.0113C8.68281 10.1045 9.36731 9.45305 10.3027 9.45305C11.8984 9.45305 12.8008 8.75755 13.3092 7.27631C13.6173 6.37832 14.3987 5.92933 15.3803 5.93153C16.3289 5.93153 17.097 6.37172 17.403 7.22789C17.9334 8.71133 18.8204 9.42884 20.4557 9.46405C21.675 9.47946 22.4387 10.5205 22.5642 11.7332ZM12.6819 16.9869C14.4911 15.4088 16.2035 15.5431 17.8872 16.9473C17.9488 16.7624 19.5489 11.8719 19.6017 11.709C17.3325 11.9797 15.99 10.8815 15.4771 8.62769C14.8631 9.63352 14.5373 10.6702 13.8308 11.183C13.1243 11.6958 12.0525 11.6628 10.8794 11.9291C12.9989 13.1308 13.4963 14.7749 12.6819 16.9869Z" fill="white"/>
<path d="M63.7814 17.097C63.8474 16.7118 63.909 16.1351 64.0521 15.5783C64.1313 15.346 64.1327 15.0943 64.056 14.8612C63.9794 14.6281 63.8289 14.4263 63.6273 14.2863C63.2263 13.9502 62.8531 13.5821 62.5114 13.1859C62.251 12.8999 62.069 12.5514 61.9831 12.1743C61.8971 11.7972 61.9102 11.4043 62.0209 11.0337C62.1317 10.6632 62.3364 10.3275 62.6151 10.0594C62.8939 9.79134 63.2373 9.59989 63.6119 9.50368C64.0295 9.36469 64.466 9.29046 64.906 9.28358C65.8304 9.3144 66.2926 8.84339 66.5766 8.02904C66.7108 7.66961 66.8835 7.32573 67.0916 7.0034C67.994 5.55077 70.1971 5.44072 70.8904 6.97698C71.6255 8.60569 72.6182 9.3254 74.3943 9.53449C76.1287 9.74138 76.8154 12.0062 75.4948 13.1617C74.1742 14.3172 73.8309 15.455 74.2315 17.1454C74.6056 18.7213 72.7106 20.2267 71.3064 19.4344C69.6689 18.5122 68.3571 18.554 66.7306 19.4344C65.366 20.2047 63.7549 18.8841 63.7814 17.097ZM71.6542 17.0485C71.5551 15.8996 71.2008 14.8674 71.4693 14.0354C71.7378 13.2035 72.6292 12.6004 73.252 11.8895C72.2946 11.6562 71.2052 11.6694 70.5031 11.1434C69.801 10.6174 69.4994 9.58951 68.87 8.52425C68.465 11.0025 67.0013 11.9137 64.7058 11.8455C65.1395 12.3774 65.6221 12.8674 66.1474 13.3091C66.3835 13.4987 66.5584 13.7537 66.6504 14.0422C66.7424 14.3307 66.7473 14.6399 66.6646 14.9312C66.5193 15.5519 66.4599 16.1946 66.3631 16.8284L66.4621 17.0926C68.1855 15.3626 69.9088 15.5585 71.6542 17.0485Z" fill="white"/>
</g>
<defs>
<clipPath id="clip0_46_130">
<rect width="84.3844" height="84.38" fill="white"/>
</clipPath>
</defs>
</svg>
